<?xml version="1.0" encoding="UTF-8" standalone="no"?>
<!DOCTYPE svg PUBLIC "-//W3C//DTD SVG 1.1//EN"
 "http://www.w3.org/Graphics/SVG/1.1/DTD/svg11.dtd">
<!-- Generated by graphviz version 5.0.0 (20220707.1540)
 -->
<!-- Title: dependencies Pages: 1 -->
<svg width="240pt" height="174pt"
 viewBox="0.00 0.00 240.00 173.80" xmlns="http://www.w3.org/2000/svg" xmlns:xlink="http://www.w3.org/1999/xlink">
<g id="graph0" class="graph" transform="scale(1 1) rotate(0) translate(4 169.8)">
<title>dependencies</title>
<polygon fill="white" stroke="transparent" points="-4,4 -4,-169.8 236,-169.8 236,4 -4,4"/>
<text text-anchor="middle" x="116" y="-8.2" font-family="sans-serif" font-size="14.00">dependencies</text>
<g id="clust1" class="cluster">
<title>cluster_PermissionModule</title>
<polygon fill="none" stroke="black" stroke-dasharray="1,5" points="8,-32.8 8,-157.8 224,-157.8 224,-32.8 8,-32.8"/>
</g>
<g id="clust3" class="cluster">
<title>cluster_PermissionModule_imports</title>
<polygon fill="none" stroke="black" points="16,-40.8 16,-92.8 216,-92.8 216,-40.8 16,-40.8"/>
</g>
<!-- PermissionRepositoryModule -->
<g id="node1" class="node">
<title>PermissionRepositoryModule</title>
<polygon fill="#8dd3c7" stroke="black" points="207.72,-84.8 204.72,-88.8 183.72,-88.8 180.72,-84.8 24.28,-84.8 24.28,-48.8 207.72,-48.8 207.72,-84.8"/>
<text text-anchor="middle" x="116" y="-62.6" font-family="Times,serif" font-size="14.00">PermissionRepositoryModule</text>
</g>
<!-- PermissionModule -->
<g id="node2" class="node">
<title>PermissionModule</title>
<polygon fill="#8dd3c7" stroke="black" points="176.78,-149.8 173.78,-153.8 152.78,-153.8 149.78,-149.8 55.22,-149.8 55.22,-113.8 176.78,-113.8 176.78,-149.8"/>
<text text-anchor="middle" x="116" y="-127.6" font-family="Times,serif" font-size="14.00">PermissionModule</text>
</g>
<!-- PermissionRepositoryModule&#45;&gt;PermissionModule -->
<g id="edge1" class="edge">
<title>PermissionRepositoryModule&#45;&gt;PermissionModule</title>
<path fill="none" stroke="black" d="M116,-84.91C116,-84.91 116,-103.79 116,-103.79"/>
<polygon fill="black" stroke="black" points="112.5,-103.79 116,-113.79 119.5,-103.79 112.5,-103.79"/>
</g>
</g>
</svg>
