<?xml version="1.0" encoding="UTF-8" standalone="no"?>
<!DOCTYPE svg PUBLIC "-//W3C//DTD SVG 1.1//EN"
 "http://www.w3.org/Graphics/SVG/1.1/DTD/svg11.dtd">
<!-- Generated by graphviz version 5.0.0 (20220707.1540)
 -->
<!-- Title: dependencies Pages: 1 -->
<svg width="344pt" height="247pt"
 viewBox="0.00 0.00 344.00 246.80" xmlns="http://www.w3.org/2000/svg" xmlns:xlink="http://www.w3.org/1999/xlink">
<g id="graph0" class="graph" transform="scale(1 1) rotate(0) translate(4 242.8)">
<title>dependencies</title>
<polygon fill="white" stroke="transparent" points="-4,4 -4,-242.8 340,-242.8 340,4 -4,4"/>
<text text-anchor="middle" x="168" y="-8.2" font-family="sans-serif" font-size="14.00">dependencies</text>
<g id="clust1" class="cluster">
<title>cluster_UserModule</title>
<polygon fill="none" stroke="black" stroke-dasharray="1,5" points="8,-32.8 8,-230.8 328,-230.8 328,-32.8 8,-32.8"/>
</g>
<g id="clust6" class="cluster">
<title>cluster_UserModule_providers</title>
<polygon fill="none" stroke="black" points="188,-40.8 188,-92.8 320,-92.8 320,-40.8 188,-40.8"/>
</g>
<g id="clust3" class="cluster">
<title>cluster_UserModule_imports</title>
<polygon fill="none" stroke="black" points="16,-40.8 16,-92.8 180,-92.8 180,-40.8 16,-40.8"/>
</g>
<g id="clust4" class="cluster">
<title>cluster_UserModule_exports</title>
<polygon fill="none" stroke="black" points="124,-170.8 124,-222.8 228,-222.8 228,-170.8 124,-170.8"/>
</g>
<!-- UserRepositoryModule -->
<g id="node1" class="node">
<title>UserRepositoryModule</title>
<polygon fill="#8dd3c7" stroke="black" points="171.93,-84.8 168.93,-88.8 147.93,-88.8 144.93,-84.8 24.07,-84.8 24.07,-48.8 171.93,-48.8 171.93,-84.8"/>
<text text-anchor="middle" x="98" y="-62.6" font-family="Times,serif" font-size="14.00">UserRepositoryModule</text>
</g>
<!-- UserModule -->
<g id="node2" class="node">
<title>UserModule</title>
<polygon fill="#8dd3c7" stroke="black" points="218.99,-149.8 215.99,-153.8 194.99,-153.8 191.99,-149.8 133.01,-149.8 133.01,-113.8 218.99,-113.8 218.99,-149.8"/>
<text text-anchor="middle" x="176" y="-127.6" font-family="Times,serif" font-size="14.00">UserModule</text>
</g>
<!-- UserRepositoryModule&#45;&gt;UserModule -->
<g id="edge1" class="edge">
<title>UserRepositoryModule&#45;&gt;UserModule</title>
<path fill="none" stroke="black" d="M152.36,-84.91C152.36,-84.91 152.36,-103.79 152.36,-103.79"/>
<polygon fill="black" stroke="black" points="148.86,-103.79 152.36,-113.79 155.86,-103.79 148.86,-103.79"/>
</g>
<!-- UserService  -->
<g id="node3" class="node">
<title>UserService </title>
<polygon fill="#fb8072" stroke="black" points="219.91,-214.8 132.09,-214.8 132.09,-178.8 219.91,-178.8 219.91,-214.8"/>
<text text-anchor="middle" x="176" y="-192.6" font-family="Times,serif" font-size="14.00">UserService </text>
</g>
<!-- UserModule&#45;&gt;UserService  -->
<g id="edge2" class="edge">
<title>UserModule&#45;&gt;UserService </title>
<path fill="none" stroke="black" stroke-dasharray="5,2" d="M176,-149.91C176,-149.91 176,-168.79 176,-168.79"/>
<polygon fill="black" stroke="black" points="172.5,-168.79 176,-178.79 179.5,-168.79 172.5,-168.79"/>
</g>
<!-- UserService -->
<g id="node4" class="node">
<title>UserService</title>
<ellipse fill="#fdb462" stroke="black" cx="254" cy="-66.8" rx="58.46" ry="18"/>
<text text-anchor="middle" x="254" y="-62.6" font-family="Times,serif" font-size="14.00">UserService</text>
</g>
<!-- UserService&#45;&gt;UserModule -->
<g id="edge3" class="edge">
<title>UserService&#45;&gt;UserModule</title>
<path fill="none" stroke="black" d="M207.38,-77.83C207.38,-77.83 207.38,-103.58 207.38,-103.58"/>
<polygon fill="black" stroke="black" points="203.88,-103.58 207.38,-113.58 210.88,-103.58 203.88,-103.58"/>
</g>
</g>
</svg>
