<?xml version="1.0" encoding="UTF-8" standalone="no"?>
<!DOCTYPE svg PUBLIC "-//W3C//DTD SVG 1.1//EN"
 "http://www.w3.org/Graphics/SVG/1.1/DTD/svg11.dtd">
<!-- Generated by graphviz version 5.0.0 (20220707.1540)
 -->
<!-- Title: dependencies Pages: 1 -->
<svg width="344pt" height="247pt"
 viewBox="0.00 0.00 344.00 246.80" xmlns="http://www.w3.org/2000/svg" xmlns:xlink="http://www.w3.org/1999/xlink">
<g id="graph0" class="graph" transform="scale(1 1) rotate(0) translate(4 242.8)">
<title>dependencies</title>
<polygon fill="white" stroke="transparent" points="-4,4 -4,-242.8 340,-242.8 340,4 -4,4"/>
<text text-anchor="middle" x="168" y="-8.2" font-family="sans-serif" font-size="14.00">dependencies</text>
<g id="clust1" class="cluster">
<title>cluster_UserModule</title>
<polygon fill="none" stroke="black" stroke-dasharray="1,5" points="8,-32.8 8,-230.8 328,-230.8 328,-32.8 8,-32.8"/>
</g>
<g id="clust3" class="cluster">
<title>cluster_UserModule_imports</title>
<polygon fill="none" stroke="black" points="156,-40.8 156,-92.8 320,-92.8 320,-40.8 156,-40.8"/>
</g>
<g id="clust4" class="cluster">
<title>cluster_UserModule_exports</title>
<polygon fill="none" stroke="black" points="108,-170.8 108,-222.8 212,-222.8 212,-170.8 108,-170.8"/>
</g>
<g id="clust6" class="cluster">
<title>cluster_UserModule_providers</title>
<polygon fill="none" stroke="black" points="16,-40.8 16,-92.8 148,-92.8 148,-40.8 16,-40.8"/>
</g>
<!-- UserRepositoryModule -->
<g id="node1" class="node">
<title>UserRepositoryModule</title>
<polygon fill="#8dd3c7" stroke="black" points="311.93,-84.8 308.93,-88.8 287.93,-88.8 284.93,-84.8 164.07,-84.8 164.07,-48.8 311.93,-48.8 311.93,-84.8"/>
<text text-anchor="middle" x="238" y="-62.6" font-family="Times,serif" font-size="14.00">UserRepositoryModule</text>
</g>
<!-- UserModule -->
<g id="node2" class="node">
<title>UserModule</title>
<polygon fill="#8dd3c7" stroke="black" points="202.99,-149.8 199.99,-153.8 178.99,-153.8 175.99,-149.8 117.01,-149.8 117.01,-113.8 202.99,-113.8 202.99,-149.8"/>
<text text-anchor="middle" x="160" y="-127.6" font-family="Times,serif" font-size="14.00">UserModule</text>
</g>
<!-- UserRepositoryModule&#45;&gt;UserModule -->
<g id="edge1" class="edge">
<title>UserRepositoryModule&#45;&gt;UserModule</title>
<path fill="none" stroke="black" d="M183.64,-84.91C183.64,-84.91 183.64,-103.79 183.64,-103.79"/>
<polygon fill="black" stroke="black" points="180.14,-103.79 183.64,-113.79 187.14,-103.79 180.14,-103.79"/>
</g>
<!-- UserService  -->
<g id="node3" class="node">
<title>UserService </title>
<polygon fill="#fb8072" stroke="black" points="203.91,-214.8 116.09,-214.8 116.09,-178.8 203.91,-178.8 203.91,-214.8"/>
<text text-anchor="middle" x="160" y="-192.6" font-family="Times,serif" font-size="14.00">UserService </text>
</g>
<!-- UserModule&#45;&gt;UserService  -->
<g id="edge2" class="edge">
<title>UserModule&#45;&gt;UserService </title>
<path fill="none" stroke="black" stroke-dasharray="5,2" d="M160,-149.91C160,-149.91 160,-168.79 160,-168.79"/>
<polygon fill="black" stroke="black" points="156.5,-168.79 160,-178.79 163.5,-168.79 156.5,-168.79"/>
</g>
<!-- UserService -->
<g id="node4" class="node">
<title>UserService</title>
<ellipse fill="#fdb462" stroke="black" cx="82" cy="-66.8" rx="58.46" ry="18"/>
<text text-anchor="middle" x="82" y="-62.6" font-family="Times,serif" font-size="14.00">UserService</text>
</g>
<!-- UserService&#45;&gt;UserModule -->
<g id="edge3" class="edge">
<title>UserService&#45;&gt;UserModule</title>
<path fill="none" stroke="black" d="M128.62,-77.83C128.62,-77.83 128.62,-103.58 128.62,-103.58"/>
<polygon fill="black" stroke="black" points="125.12,-103.58 128.62,-113.58 132.12,-103.58 125.12,-103.58"/>
</g>
</g>
</svg>
