<?xml version="1.0" encoding="UTF-8" standalone="no"?>
<!DOCTYPE svg PUBLIC "-//W3C//DTD SVG 1.1//EN"
 "http://www.w3.org/Graphics/SVG/1.1/DTD/svg11.dtd">
<!-- Generated by graphviz version 5.0.0 (20220707.1540)
 -->
<!-- Title: dependencies Pages: 1 -->
<svg width="1522pt" height="247pt"
 viewBox="0.00 0.00 1522.00 246.80" xmlns="http://www.w3.org/2000/svg" xmlns:xlink="http://www.w3.org/1999/xlink">
<g id="graph0" class="graph" transform="scale(1 1) rotate(0) translate(4 242.8)">
<title>dependencies</title>
<polygon fill="white" stroke="transparent" points="-4,4 -4,-242.8 1518,-242.8 1518,4 -4,4"/>
<text text-anchor="middle" x="757" y="-8.2" font-family="sans-serif" font-size="14.00">dependencies</text>
<g id="clust1" class="cluster">
<title>cluster_AuthJwtModule</title>
<polygon fill="none" stroke="black" stroke-dasharray="1,5" points="8,-32.8 8,-230.8 1506,-230.8 1506,-32.8 8,-32.8"/>
</g>
<g id="clust4" class="cluster">
<title>cluster_AuthJwtModule_exports</title>
<polygon fill="none" stroke="black" points="529,-170.8 529,-222.8 635,-222.8 635,-170.8 529,-170.8"/>
</g>
<g id="clust6" class="cluster">
<title>cluster_AuthJwtModule_providers</title>
<polygon fill="none" stroke="black" points="324,-40.8 324,-92.8 1498,-92.8 1498,-40.8 324,-40.8"/>
</g>
<g id="clust3" class="cluster">
<title>cluster_AuthJwtModule_imports</title>
<polygon fill="none" stroke="black" points="16,-40.8 16,-92.8 316,-92.8 316,-40.8 16,-40.8"/>
</g>
<!-- AuthJwtRepositoryModule -->
<g id="node1" class="node">
<title>AuthJwtRepositoryModule</title>
<polygon fill="#8dd3c7" stroke="black" points="308.44,-84.8 305.44,-88.8 284.44,-88.8 281.44,-84.8 139.56,-84.8 139.56,-48.8 308.44,-48.8 308.44,-84.8"/>
<text text-anchor="middle" x="224" y="-62.6" font-family="Times,serif" font-size="14.00">AuthJwtRepositoryModule</text>
</g>
<!-- AuthJwtModule -->
<g id="node3" class="node">
<title>AuthJwtModule</title>
<polygon fill="#8dd3c7" stroke="black" points="635.5,-149.8 632.5,-153.8 611.5,-153.8 608.5,-149.8 528.5,-149.8 528.5,-113.8 635.5,-113.8 635.5,-149.8"/>
<text text-anchor="middle" x="582" y="-127.6" font-family="Times,serif" font-size="14.00">AuthJwtModule</text>
</g>
<!-- AuthJwtRepositoryModule&#45;&gt;AuthJwtModule -->
<g id="edge1" class="edge">
<title>AuthJwtRepositoryModule&#45;&gt;AuthJwtModule</title>
<path fill="none" stroke="black" d="M224,-84.91C224,-104.14 224,-131.8 224,-131.8 224,-131.8 518.4,-131.8 518.4,-131.8"/>
<polygon fill="black" stroke="black" points="518.4,-135.3 528.4,-131.8 518.4,-128.3 518.4,-135.3"/>
</g>
<!-- HelperModule -->
<g id="node2" class="node">
<title>HelperModule</title>
<polygon fill="#8dd3c7" stroke="black" points="121.64,-84.8 118.64,-88.8 97.64,-88.8 94.64,-84.8 24.36,-84.8 24.36,-48.8 121.64,-48.8 121.64,-84.8"/>
<text text-anchor="middle" x="73" y="-62.6" font-family="Times,serif" font-size="14.00">HelperModule</text>
</g>
<!-- HelperModule&#45;&gt;AuthJwtModule -->
<g id="edge2" class="edge">
<title>HelperModule&#45;&gt;AuthJwtModule</title>
<path fill="none" stroke="black" d="M73,-85.09C73,-107.01 73,-140.8 73,-140.8 73,-140.8 518.49,-140.8 518.49,-140.8"/>
<polygon fill="black" stroke="black" points="518.49,-144.3 528.49,-140.8 518.49,-137.3 518.49,-144.3"/>
</g>
<!-- AuthService  -->
<g id="node4" class="node">
<title>AuthService </title>
<polygon fill="#fb8072" stroke="black" points="626.98,-214.8 537.02,-214.8 537.02,-178.8 626.98,-178.8 626.98,-214.8"/>
<text text-anchor="middle" x="582" y="-192.6" font-family="Times,serif" font-size="14.00">AuthService </text>
</g>
<!-- AuthJwtModule&#45;&gt;AuthService  -->
<g id="edge3" class="edge">
<title>AuthJwtModule&#45;&gt;AuthService </title>
<path fill="none" stroke="black" stroke-dasharray="5,2" d="M582,-149.91C582,-149.91 582,-168.79 582,-168.79"/>
<polygon fill="black" stroke="black" points="578.5,-168.79 582,-178.79 585.5,-168.79 578.5,-168.79"/>
</g>
<!-- AuthAccessTokenService -->
<g id="node5" class="node">
<title>AuthAccessTokenService</title>
<ellipse fill="#fdb462" stroke="black" cx="1379" cy="-66.8" rx="111.15" ry="18"/>
<text text-anchor="middle" x="1379" y="-62.6" font-family="Times,serif" font-size="14.00">AuthAccessTokenService</text>
</g>
<!-- AuthAccessTokenService&#45;&gt;AuthJwtModule -->
<g id="edge4" class="edge">
<title>AuthAccessTokenService&#45;&gt;AuthJwtModule</title>
<path fill="none" stroke="black" d="M1379,-85.09C1379,-107.01 1379,-140.8 1379,-140.8 1379,-140.8 645.53,-140.8 645.53,-140.8"/>
<polygon fill="black" stroke="black" points="645.53,-137.3 635.53,-140.8 645.53,-144.3 645.53,-137.3"/>
</g>
<!-- AuthJwtAccessTokenStrategy -->
<g id="node6" class="node">
<title>AuthJwtAccessTokenStrategy</title>
<ellipse fill="#fdb462" stroke="black" cx="1122" cy="-66.8" rx="127.93" ry="18"/>
<text text-anchor="middle" x="1122" y="-62.6" font-family="Times,serif" font-size="14.00">AuthJwtAccessTokenStrategy</text>
</g>
<!-- AuthJwtAccessTokenStrategy&#45;&gt;AuthJwtModule -->
<g id="edge5" class="edge">
<title>AuthJwtAccessTokenStrategy&#45;&gt;AuthJwtModule</title>
<path fill="none" stroke="black" d="M1122,-84.91C1122,-104.14 1122,-131.8 1122,-131.8 1122,-131.8 645.75,-131.8 645.75,-131.8"/>
<polygon fill="black" stroke="black" points="645.75,-128.3 635.75,-131.8 645.75,-135.3 645.75,-128.3"/>
</g>
<!-- AuthJwtRefreshTokenStrategy -->
<g id="node7" class="node">
<title>AuthJwtRefreshTokenStrategy</title>
<ellipse fill="#fdb462" stroke="black" cx="845" cy="-66.8" rx="130.8" ry="18"/>
<text text-anchor="middle" x="845" y="-62.6" font-family="Times,serif" font-size="14.00">AuthJwtRefreshTokenStrategy</text>
</g>
<!-- AuthJwtRefreshTokenStrategy&#45;&gt;AuthJwtModule -->
<g id="edge6" class="edge">
<title>AuthJwtRefreshTokenStrategy&#45;&gt;AuthJwtModule</title>
<path fill="none" stroke="black" d="M845,-84.83C845,-101.2 845,-122.8 845,-122.8 845,-122.8 645.54,-122.8 645.54,-122.8"/>
<polygon fill="black" stroke="black" points="645.54,-119.3 635.54,-122.8 645.54,-126.3 645.54,-119.3"/>
</g>
<!-- AuthRefreshTokenService -->
<g id="node8" class="node">
<title>AuthRefreshTokenService</title>
<ellipse fill="#fdb462" stroke="black" cx="582" cy="-66.8" rx="114.02" ry="18"/>
<text text-anchor="middle" x="582" y="-62.6" font-family="Times,serif" font-size="14.00">AuthRefreshTokenService</text>
</g>
<!-- AuthRefreshTokenService&#45;&gt;AuthJwtModule -->
<g id="edge7" class="edge">
<title>AuthRefreshTokenService&#45;&gt;AuthJwtModule</title>
<path fill="none" stroke="black" d="M582,-84.91C582,-84.91 582,-103.79 582,-103.79"/>
<polygon fill="black" stroke="black" points="578.5,-103.79 582,-113.79 585.5,-103.79 578.5,-103.79"/>
</g>
<!-- AuthService -->
<g id="node9" class="node">
<title>AuthService</title>
<ellipse fill="#fdb462" stroke="black" cx="391" cy="-66.8" rx="59.11" ry="18"/>
<text text-anchor="middle" x="391" y="-62.6" font-family="Times,serif" font-size="14.00">AuthService</text>
</g>
<!-- AuthService&#45;&gt;AuthJwtModule -->
<g id="edge8" class="edge">
<title>AuthService&#45;&gt;AuthJwtModule</title>
<path fill="none" stroke="black" d="M391,-84.83C391,-101.2 391,-122.8 391,-122.8 391,-122.8 518.29,-122.8 518.29,-122.8"/>
<polygon fill="black" stroke="black" points="518.29,-126.3 528.29,-122.8 518.29,-119.3 518.29,-126.3"/>
</g>
</g>
</svg>
