<?xml version="1.0" encoding="UTF-8" standalone="no"?>
<!DOCTYPE svg PUBLIC "-//W3C//DTD SVG 1.1//EN"
 "http://www.w3.org/Graphics/SVG/1.1/DTD/svg11.dtd">
<!-- Generated by graphviz version 5.0.0 (20220707.1540)
 -->
<!-- Title: dependencies Pages: 1 -->
<svg width="362pt" height="247pt"
 viewBox="0.00 0.00 362.00 246.80" xmlns="http://www.w3.org/2000/svg" xmlns:xlink="http://www.w3.org/1999/xlink">
<g id="graph0" class="graph" transform="scale(1 1) rotate(0) translate(4 242.8)">
<title>dependencies</title>
<polygon fill="white" stroke="transparent" points="-4,4 -4,-242.8 358,-242.8 358,4 -4,4"/>
<text text-anchor="middle" x="177" y="-8.2" font-family="sans-serif" font-size="14.00">dependencies</text>
<g id="clust1" class="cluster">
<title>cluster_AwsModule</title>
<polygon fill="none" stroke="black" stroke-dasharray="1,5" points="8,-32.8 8,-230.8 346,-230.8 346,-32.8 8,-32.8"/>
</g>
<g id="clust6" class="cluster">
<title>cluster_AwsModule_providers</title>
<polygon fill="none" stroke="black" points="186,-40.8 186,-92.8 338,-92.8 338,-40.8 186,-40.8"/>
</g>
<g id="clust3" class="cluster">
<title>cluster_AwsModule_imports</title>
<polygon fill="none" stroke="black" points="16,-40.8 16,-92.8 178,-92.8 178,-40.8 16,-40.8"/>
</g>
<g id="clust4" class="cluster">
<title>cluster_AwsModule_exports</title>
<polygon fill="none" stroke="black" points="120,-170.8 120,-222.8 238,-222.8 238,-170.8 120,-170.8"/>
</g>
<!-- AwsRepositoryModule -->
<g id="node1" class="node">
<title>AwsRepositoryModule</title>
<polygon fill="#8dd3c7" stroke="black" points="170.16,-84.8 167.16,-88.8 146.16,-88.8 143.16,-84.8 23.84,-84.8 23.84,-48.8 170.16,-48.8 170.16,-84.8"/>
<text text-anchor="middle" x="97" y="-62.6" font-family="Times,serif" font-size="14.00">AwsRepositoryModule</text>
</g>
<!-- AwsModule -->
<g id="node2" class="node">
<title>AwsModule</title>
<polygon fill="#8dd3c7" stroke="black" points="221.72,-149.8 218.72,-153.8 197.72,-153.8 194.72,-149.8 136.28,-149.8 136.28,-113.8 221.72,-113.8 221.72,-149.8"/>
<text text-anchor="middle" x="179" y="-127.6" font-family="Times,serif" font-size="14.00">AwsModule</text>
</g>
<!-- AwsRepositoryModule&#45;&gt;AwsModule -->
<g id="edge1" class="edge">
<title>AwsRepositoryModule&#45;&gt;AwsModule</title>
<path fill="none" stroke="black" d="M153.36,-84.91C153.36,-84.91 153.36,-103.79 153.36,-103.79"/>
<polygon fill="black" stroke="black" points="149.86,-103.79 153.36,-113.79 156.86,-103.79 149.86,-103.79"/>
</g>
<!-- AwsS3Service  -->
<g id="node3" class="node">
<title>AwsS3Service </title>
<polygon fill="#fb8072" stroke="black" points="229.93,-214.8 128.07,-214.8 128.07,-178.8 229.93,-178.8 229.93,-214.8"/>
<text text-anchor="middle" x="179" y="-192.6" font-family="Times,serif" font-size="14.00">AwsS3Service </text>
</g>
<!-- AwsModule&#45;&gt;AwsS3Service  -->
<g id="edge2" class="edge">
<title>AwsModule&#45;&gt;AwsS3Service </title>
<path fill="none" stroke="black" stroke-dasharray="5,2" d="M179,-149.91C179,-149.91 179,-168.79 179,-168.79"/>
<polygon fill="black" stroke="black" points="175.5,-168.79 179,-178.79 182.5,-168.79 175.5,-168.79"/>
</g>
<!-- AwsS3Service -->
<g id="node4" class="node">
<title>AwsS3Service</title>
<ellipse fill="#fdb462" stroke="black" cx="262" cy="-66.8" rx="67.8" ry="18"/>
<text text-anchor="middle" x="262" y="-62.6" font-family="Times,serif" font-size="14.00">AwsS3Service</text>
</g>
<!-- AwsS3Service&#45;&gt;AwsModule -->
<g id="edge3" class="edge">
<title>AwsS3Service&#45;&gt;AwsModule</title>
<path fill="none" stroke="black" d="M207.86,-77.83C207.86,-77.83 207.86,-103.58 207.86,-103.58"/>
<polygon fill="black" stroke="black" points="204.36,-103.58 207.86,-113.58 211.36,-103.58 204.36,-103.58"/>
</g>
</g>
</svg>
