<?xml version="1.0" encoding="UTF-8" standalone="no"?>
<!DOCTYPE svg PUBLIC "-//W3C//DTD SVG 1.1//EN"
 "http://www.w3.org/Graphics/SVG/1.1/DTD/svg11.dtd">
<!-- Generated by graphviz version 5.0.0 (20220707.1540)
 -->
<!-- Title: dependencies Pages: 1 -->
<svg width="5116pt" height="413pt"
 viewBox="0.00 0.00 5116.00 412.80" xmlns="http://www.w3.org/2000/svg" xmlns:xlink="http://www.w3.org/1999/xlink">
<g id="graph0" class="graph" transform="scale(1 1) rotate(0) translate(4 408.8)">
<title>dependencies</title>
<polygon fill="white" stroke="transparent" points="-4,4 -4,-408.8 5112,-408.8 5112,4 -4,4"/>
<text text-anchor="middle" x="2554" y="-8.2" font-family="sans-serif" font-size="14.00">dependencies</text>
<g id="clust1" class="cluster">
<title>cluster_AppModule</title>
<polygon fill="none" stroke="black" stroke-dasharray="1,5" points="1515,-260.8 1515,-388.8 1775,-388.8 1775,-260.8 1515,-260.8"/>
</g>
<g id="clust3" class="cluster">
<title>cluster_AppModule_imports</title>
<polygon fill="none" stroke="black" points="1523,-268.8 1523,-320.8 1767,-320.8 1767,-268.8 1523,-268.8"/>
</g>
<g id="clust7" class="cluster">
<title>cluster_AuthJwtModule</title>
<polygon fill="none" stroke="black" stroke-dasharray="1,5" points="8,-108.8 8,-328.8 1507,-328.8 1507,-108.8 8,-108.8"/>
</g>
<g id="clust9" class="cluster">
<title>cluster_AuthJwtModule_imports</title>
<polygon fill="none" stroke="black" points="1199,-116.8 1199,-168.8 1499,-168.8 1499,-116.8 1199,-116.8"/>
</g>
<g id="clust10" class="cluster">
<title>cluster_AuthJwtModule_exports</title>
<polygon fill="none" stroke="black" points="1071,-268.8 1071,-320.8 1177,-320.8 1177,-268.8 1071,-268.8"/>
</g>
<g id="clust12" class="cluster">
<title>cluster_AuthJwtModule_providers</title>
<polygon fill="none" stroke="black" points="16,-116.8 16,-168.8 1191,-168.8 1191,-116.8 16,-116.8"/>
</g>
<g id="clust13" class="cluster">
<title>cluster_AuthJwtRepositoryModule</title>
<polygon fill="none" stroke="black" stroke-dasharray="1,5" points="1788,-184.8 1788,-252.8 2756,-252.8 2756,-184.8 1788,-184.8"/>
</g>
<g id="clust16" class="cluster">
<title>cluster_AuthJwtRepositoryModule_exports</title>
<polygon fill="none" stroke="black" points="2342,-192.8 2342,-244.8 2748,-244.8 2748,-192.8 2342,-192.8"/>
</g>
<g id="clust18" class="cluster">
<title>cluster_AuthJwtRepositoryModule_providers</title>
<polygon fill="none" stroke="black" points="1796,-192.8 1796,-244.8 2334,-244.8 2334,-192.8 1796,-192.8"/>
</g>
<g id="clust19" class="cluster">
<title>cluster_AwsModule</title>
<polygon fill="none" stroke="black" stroke-dasharray="1,5" points="3894,-108.8 3894,-328.8 4232,-328.8 4232,-108.8 3894,-108.8"/>
</g>
<g id="clust21" class="cluster">
<title>cluster_AwsModule_imports</title>
<polygon fill="none" stroke="black" points="4062,-116.8 4062,-168.8 4224,-168.8 4224,-116.8 4062,-116.8"/>
</g>
<g id="clust22" class="cluster">
<title>cluster_AwsModule_exports</title>
<polygon fill="none" stroke="black" points="4106,-268.8 4106,-320.8 4224,-320.8 4224,-268.8 4106,-268.8"/>
</g>
<g id="clust24" class="cluster">
<title>cluster_AwsModule_providers</title>
<polygon fill="none" stroke="black" points="3902,-116.8 3902,-168.8 4054,-168.8 4054,-116.8 3902,-116.8"/>
</g>
<g id="clust31" class="cluster">
<title>cluster_CommonModule</title>
<polygon fill="none" stroke="black" stroke-dasharray="1,5" points="1515,-184.8 1515,-252.8 1780,-252.8 1780,-184.8 1515,-184.8"/>
</g>
<g id="clust33" class="cluster">
<title>cluster_CommonModule_imports</title>
<polygon fill="none" stroke="black" points="1523,-192.8 1523,-244.8 1772,-244.8 1772,-192.8 1523,-192.8"/>
</g>
<g id="clust37" class="cluster">
<title>cluster_DatabaseModule</title>
<polygon fill="none" stroke="black" stroke-dasharray="1,5" points="1783,-260.8 1783,-328.8 2209,-328.8 2209,-260.8 1783,-260.8"/>
</g>
<g id="clust40" class="cluster">
<title>cluster_DatabaseModule_exports</title>
<polygon fill="none" stroke="black" points="2027,-268.8 2027,-320.8 2201,-320.8 2201,-268.8 2027,-268.8"/>
</g>
<g id="clust42" class="cluster">
<title>cluster_DatabaseModule_providers</title>
<polygon fill="none" stroke="black" points="1791,-268.8 1791,-320.8 2019,-320.8 2019,-268.8 1791,-268.8"/>
</g>
<g id="clust43" class="cluster">
<title>cluster_HealthModule</title>
<polygon fill="none" stroke="black" stroke-dasharray="1,5" points="4868,-184.8 4868,-396.8 5100,-396.8 5100,-184.8 4868,-184.8"/>
</g>
<g id="clust46" class="cluster">
<title>cluster_HealthModule_exports</title>
<polygon fill="none" stroke="black" points="4876,-336.8 4876,-388.8 5040,-388.8 5040,-336.8 4876,-336.8"/>
</g>
<g id="clust48" class="cluster">
<title>cluster_HealthModule_providers</title>
<polygon fill="none" stroke="black" points="4876,-192.8 4876,-244.8 5092,-244.8 5092,-192.8 4876,-192.8"/>
</g>
<g id="clust49" class="cluster">
<title>cluster_HelperModule</title>
<polygon fill="none" stroke="black" stroke-dasharray="1,5" points="2764,-184.8 2764,-252.8 3886,-252.8 3886,-184.8 2764,-184.8"/>
</g>
<g id="clust52" class="cluster">
<title>cluster_HelperModule_exports</title>
<polygon fill="none" stroke="black" points="3402,-192.8 3402,-244.8 3878,-244.8 3878,-192.8 3402,-192.8"/>
</g>
<g id="clust54" class="cluster">
<title>cluster_HelperModule_providers</title>
<polygon fill="none" stroke="black" points="2772,-192.8 2772,-244.8 3394,-244.8 3394,-192.8 2772,-192.8"/>
</g>
<g id="clust61" class="cluster">
<title>cluster_RoleModule</title>
<polygon fill="none" stroke="black" stroke-dasharray="1,5" points="4680,-108.8 4680,-244.8 4860,-244.8 4860,-108.8 4680,-108.8"/>
</g>
<g id="clust63" class="cluster">
<title>cluster_RoleModule_imports</title>
<polygon fill="none" stroke="black" points="4688,-116.8 4688,-168.8 4852,-168.8 4852,-116.8 4688,-116.8"/>
</g>
<g id="clust79" class="cluster">
<title>cluster_RoutesModule</title>
<polygon fill="none" stroke="black" stroke-dasharray="1,5" points="4387,-336.8 4387,-388.8 4501,-388.8 4501,-336.8 4387,-336.8"/>
</g>
<g id="clust85" class="cluster">
<title>cluster_RoutesPublicModule</title>
<polygon fill="none" stroke="black" stroke-dasharray="1,5" points="4365,-184.8 4365,-320.8 4515,-320.8 4515,-184.8 4365,-184.8"/>
</g>
<g id="clust87" class="cluster">
<title>cluster_RoutesPublicModule_imports</title>
<polygon fill="none" stroke="black" points="4389,-192.8 4389,-244.8 4491,-244.8 4491,-192.8 4389,-192.8"/>
</g>
<g id="clust91" class="cluster">
<title>cluster_UserModule</title>
<polygon fill="none" stroke="black" stroke-dasharray="1,5" points="4240,-108.8 4240,-176.8 4672,-176.8 4672,-108.8 4240,-108.8"/>
</g>
<g id="clust93" class="cluster">
<title>cluster_UserModule_imports</title>
<polygon fill="none" stroke="black" points="4500,-116.8 4500,-168.8 4664,-168.8 4664,-116.8 4500,-116.8"/>
</g>
<g id="clust94" class="cluster">
<title>cluster_UserModule_exports</title>
<polygon fill="none" stroke="black" points="4388,-116.8 4388,-168.8 4492,-168.8 4492,-116.8 4388,-116.8"/>
</g>
<g id="clust96" class="cluster">
<title>cluster_UserModule_providers</title>
<polygon fill="none" stroke="black" points="4248,-116.8 4248,-168.8 4380,-168.8 4380,-116.8 4248,-116.8"/>
</g>
<g id="clust97" class="cluster">
<title>cluster_UserRepositoryModule</title>
<polygon fill="none" stroke="black" stroke-dasharray="1,5" points="4419,-32.8 4419,-100.8 4727,-100.8 4727,-32.8 4419,-32.8"/>
</g>
<g id="clust100" class="cluster">
<title>cluster_UserRepositoryModule_exports</title>
<polygon fill="none" stroke="black" points="4595,-40.8 4595,-92.8 4719,-92.8 4719,-40.8 4595,-40.8"/>
</g>
<g id="clust102" class="cluster">
<title>cluster_UserRepositoryModule_providers</title>
<polygon fill="none" stroke="black" points="4427,-40.8 4427,-92.8 4587,-92.8 4587,-40.8 4427,-40.8"/>
</g>
<!-- CommonModule -->
<g id="node1" class="node">
<title>CommonModule</title>
<polygon fill="#8dd3c7" stroke="black" points="1758.67,-312.8 1755.67,-316.8 1734.67,-316.8 1731.67,-312.8 1647.33,-312.8 1647.33,-276.8 1758.67,-276.8 1758.67,-312.8"/>
<text text-anchor="middle" x="1703" y="-290.6" font-family="Times,serif" font-size="14.00">CommonModule</text>
</g>
<!-- AppModule -->
<g id="node3" class="node">
<title>AppModule</title>
<polygon fill="#8dd3c7" stroke="black" points="1682.66,-380.8 1679.66,-384.8 1658.66,-384.8 1655.66,-380.8 1599.34,-380.8 1599.34,-344.8 1682.66,-344.8 1682.66,-380.8"/>
<text text-anchor="middle" x="1641" y="-358.6" font-family="Times,serif" font-size="14.00">AppModule</text>
</g>
<!-- CommonModule&#45;&gt;AppModule -->
<g id="edge1" class="edge">
<title>CommonModule&#45;&gt;AppModule</title>
<path fill="none" stroke="black" d="M1665,-313.02C1665,-313.02 1665,-334.53 1665,-334.53"/>
<polygon fill="black" stroke="black" points="1661.5,-334.53 1665,-344.53 1668.5,-334.53 1661.5,-334.53"/>
</g>
<!-- RouterModule -->
<g id="node2" class="node">
<title>RouterModule</title>
<polygon fill="#8dd3c7" stroke="black" points="1628.66,-312.8 1625.66,-316.8 1604.66,-316.8 1601.66,-312.8 1531.34,-312.8 1531.34,-276.8 1628.66,-276.8 1628.66,-312.8"/>
<text text-anchor="middle" x="1580" y="-290.6" font-family="Times,serif" font-size="14.00">RouterModule</text>
</g>
<!-- RouterModule&#45;&gt;AppModule -->
<g id="edge2" class="edge">
<title>RouterModule&#45;&gt;AppModule</title>
<path fill="none" stroke="black" d="M1614,-313.02C1614,-313.02 1614,-334.53 1614,-334.53"/>
<polygon fill="black" stroke="black" points="1610.5,-334.53 1614,-344.53 1617.5,-334.53 1610.5,-334.53"/>
</g>
<!-- AuthJwtRepositoryModule -->
<g id="node4" class="node">
<title>AuthJwtRepositoryModule</title>
<polygon fill="#8dd3c7" stroke="black" points="1375.44,-160.8 1372.44,-164.8 1351.44,-164.8 1348.44,-160.8 1206.56,-160.8 1206.56,-124.8 1375.44,-124.8 1375.44,-160.8"/>
<text text-anchor="middle" x="1291" y="-138.6" font-family="Times,serif" font-size="14.00">AuthJwtRepositoryModule</text>
</g>
<!-- AuthJwtModule -->
<g id="node6" class="node">
<title>AuthJwtModule</title>
<polygon fill="#8dd3c7" stroke="black" points="1177.5,-236.8 1174.5,-240.8 1153.5,-240.8 1150.5,-236.8 1070.5,-236.8 1070.5,-200.8 1177.5,-200.8 1177.5,-236.8"/>
<text text-anchor="middle" x="1124" y="-214.6" font-family="Times,serif" font-size="14.00">AuthJwtModule</text>
</g>
<!-- AuthJwtRepositoryModule&#45;&gt;AuthJwtModule -->
<g id="edge3" class="edge">
<title>AuthJwtRepositoryModule&#45;&gt;AuthJwtModule</title>
<path fill="none" stroke="black" d="M1347.15,-160.83C1347.15,-181.57 1347.15,-212.8 1347.15,-212.8 1347.15,-212.8 1187.73,-212.8 1187.73,-212.8"/>
<polygon fill="black" stroke="black" points="1187.73,-209.3 1177.73,-212.8 1187.73,-216.3 1187.73,-209.3"/>
</g>
<!-- AuthAccessTokenRepository  -->
<g id="node13" class="node">
<title>AuthAccessTokenRepository </title>
<polygon fill="#fb8072" stroke="black" points="2740.36,-236.8 2555.64,-236.8 2555.64,-200.8 2740.36,-200.8 2740.36,-236.8"/>
<text text-anchor="middle" x="2648" y="-214.6" font-family="Times,serif" font-size="14.00">AuthAccessTokenRepository </text>
</g>
<!-- AuthJwtRepositoryModule&#45;&gt;AuthAccessTokenRepository  -->
<g id="edge11" class="edge">
<title>AuthJwtRepositoryModule&#45;&gt;AuthAccessTokenRepository </title>
<path fill="none" stroke="black" stroke-dasharray="5,2" d="M1262.93,-160.86C1262.93,-165.29 1262.93,-168.8 1262.93,-168.8 1262.93,-168.8 2648,-168.8 2648,-168.8 2648,-168.8 2648,-190.75 2648,-190.75"/>
<polygon fill="black" stroke="black" points="2644.5,-190.75 2648,-200.75 2651.5,-190.75 2644.5,-190.75"/>
</g>
<!-- AuthRefreshTokenRepository  -->
<g id="node14" class="node">
<title>AuthRefreshTokenRepository </title>
<polygon fill="#fb8072" stroke="black" points="2538.25,-236.8 2349.75,-236.8 2349.75,-200.8 2538.25,-200.8 2538.25,-236.8"/>
<text text-anchor="middle" x="2444" y="-214.6" font-family="Times,serif" font-size="14.00">AuthRefreshTokenRepository </text>
</g>
<!-- AuthJwtRepositoryModule&#45;&gt;AuthRefreshTokenRepository  -->
<g id="edge12" class="edge">
<title>AuthJwtRepositoryModule&#45;&gt;AuthRefreshTokenRepository </title>
<path fill="none" stroke="black" stroke-dasharray="5,2" d="M1234.85,-160.99C1234.85,-169.08 1234.85,-176.8 1234.85,-176.8 1234.85,-176.8 2444,-176.8 2444,-176.8 2444,-176.8 2444,-190.74 2444,-190.74"/>
<polygon fill="black" stroke="black" points="2440.5,-190.74 2444,-200.74 2447.5,-190.74 2440.5,-190.74"/>
</g>
<!-- HelperModule -->
<g id="node5" class="node">
<title>HelperModule</title>
<polygon fill="#8dd3c7" stroke="black" points="1490.64,-160.8 1487.64,-164.8 1466.64,-164.8 1463.64,-160.8 1393.36,-160.8 1393.36,-124.8 1490.64,-124.8 1490.64,-160.8"/>
<text text-anchor="middle" x="1442" y="-138.6" font-family="Times,serif" font-size="14.00">HelperModule</text>
</g>
<!-- HelperModule&#45;&gt;CommonModule -->
<g id="edge21" class="edge">
<title>HelperModule&#45;&gt;CommonModule</title>
<path fill="none" stroke="black" d="M1490.71,-156.8C1550.26,-156.8 1643.22,-156.8 1643.22,-156.8 1643.22,-156.8 1643.22,-288.8 1643.22,-288.8 1643.22,-288.8 1643.61,-288.8 1643.61,-288.8"/>
<polygon fill="black" stroke="black" points="1637.14,-292.3 1647.14,-288.8 1637.14,-285.3 1637.14,-292.3"/>
</g>
<!-- HelperModule&#45;&gt;AuthJwtModule -->
<g id="edge4" class="edge">
<title>HelperModule&#45;&gt;AuthJwtModule</title>
<path fill="none" stroke="black" d="M1442,-161C1442,-185.16 1442,-224.8 1442,-224.8 1442,-224.8 1187.58,-224.8 1187.58,-224.8"/>
<polygon fill="black" stroke="black" points="1187.58,-221.3 1177.58,-224.8 1187.58,-228.3 1187.58,-221.3"/>
</g>
<!-- HelperEncryptionService  -->
<g id="node28" class="node">
<title>HelperEncryptionService </title>
<polygon fill="#fb8072" stroke="black" points="3869.78,-236.8 3708.22,-236.8 3708.22,-200.8 3869.78,-200.8 3869.78,-236.8"/>
<text text-anchor="middle" x="3789" y="-214.6" font-family="Times,serif" font-size="14.00">HelperEncryptionService </text>
</g>
<!-- HelperModule&#45;&gt;HelperEncryptionService  -->
<g id="edge28" class="edge">
<title>HelperModule&#45;&gt;HelperEncryptionService </title>
<path fill="none" stroke="black" stroke-dasharray="5,2" d="M1490.75,-129.8C1827.01,-129.8 3789,-129.8 3789,-129.8 3789,-129.8 3789,-190.79 3789,-190.79"/>
<polygon fill="black" stroke="black" points="3785.5,-190.79 3789,-200.79 3792.5,-190.79 3785.5,-190.79"/>
</g>
<!-- HelperHashService  -->
<g id="node29" class="node">
<title>HelperHashService </title>
<polygon fill="#fb8072" stroke="black" points="3690.34,-236.8 3561.66,-236.8 3561.66,-200.8 3690.34,-200.8 3690.34,-236.8"/>
<text text-anchor="middle" x="3626" y="-214.6" font-family="Times,serif" font-size="14.00">HelperHashService </text>
</g>
<!-- HelperModule&#45;&gt;HelperHashService  -->
<g id="edge29" class="edge">
<title>HelperModule&#45;&gt;HelperHashService </title>
<path fill="none" stroke="black" stroke-dasharray="5,2" d="M1490.68,-133.8C1812.92,-133.8 3626,-133.8 3626,-133.8 3626,-133.8 3626,-190.77 3626,-190.77"/>
<polygon fill="black" stroke="black" points="3622.5,-190.77 3626,-200.77 3629.5,-190.77 3622.5,-190.77"/>
</g>
<!-- HelperStringService  -->
<g id="node30" class="node">
<title>HelperStringService </title>
<polygon fill="#fb8072" stroke="black" points="3543.8,-236.8 3410.2,-236.8 3410.2,-200.8 3543.8,-200.8 3543.8,-236.8"/>
<text text-anchor="middle" x="3477" y="-214.6" font-family="Times,serif" font-size="14.00">HelperStringService </text>
</g>
<!-- HelperModule&#45;&gt;HelperStringService  -->
<g id="edge30" class="edge">
<title>HelperModule&#45;&gt;HelperStringService </title>
<path fill="none" stroke="black" stroke-dasharray="5,2" d="M1490.79,-138.8C1800.27,-138.8 3477,-138.8 3477,-138.8 3477,-138.8 3477,-190.65 3477,-190.65"/>
<polygon fill="black" stroke="black" points="3473.5,-190.65 3477,-200.65 3480.5,-190.65 3473.5,-190.65"/>
</g>
<!-- AuthJwtModule&#45;&gt;CommonModule -->
<g id="edge18" class="edge">
<title>AuthJwtModule&#45;&gt;CommonModule</title>
<path fill="none" stroke="black" d="M1171.66,-236.99C1171.66,-251.98 1171.66,-270.8 1171.66,-270.8 1171.66,-270.8 1674.62,-270.8 1674.62,-270.8 1674.62,-270.8 1674.62,-271.38 1674.62,-271.38"/>
<polygon fill="black" stroke="black" points="1671.12,-266.61 1674.62,-276.61 1678.12,-266.61 1671.12,-266.61"/>
</g>
<!-- AuthService  -->
<g id="node7" class="node">
<title>AuthService </title>
<polygon fill="#fb8072" stroke="black" points="1168.98,-312.8 1079.02,-312.8 1079.02,-276.8 1168.98,-276.8 1168.98,-312.8"/>
<text text-anchor="middle" x="1124" y="-290.6" font-family="Times,serif" font-size="14.00">AuthService </text>
</g>
<!-- AuthJwtModule&#45;&gt;AuthService  -->
<g id="edge5" class="edge">
<title>AuthJwtModule&#45;&gt;AuthService </title>
<path fill="none" stroke="black" stroke-dasharray="5,2" d="M1124,-236.81C1124,-236.81 1124,-266.65 1124,-266.65"/>
<polygon fill="black" stroke="black" points="1120.5,-266.65 1124,-276.65 1127.5,-266.65 1120.5,-266.65"/>
</g>
<!-- RoutesPublicModule -->
<g id="node38" class="node">
<title>RoutesPublicModule</title>
<polygon fill="#8dd3c7" stroke="black" points="4507.22,-312.8 4504.22,-316.8 4483.22,-316.8 4480.22,-312.8 4372.78,-312.8 4372.78,-276.8 4507.22,-276.8 4507.22,-312.8"/>
<text text-anchor="middle" x="4440" y="-290.6" font-family="Times,serif" font-size="14.00">RoutesPublicModule</text>
</g>
<!-- AuthJwtModule&#45;&gt;RoutesPublicModule -->
<g id="edge37" class="edge">
<title>AuthJwtModule&#45;&gt;RoutesPublicModule</title>
<path fill="none" stroke="black" d="M1174.58,-236.91C1174.58,-246.7 1174.58,-256.8 1174.58,-256.8 1174.58,-256.8 4384.47,-256.8 4384.47,-256.8 4384.47,-256.8 4384.47,-266.69 4384.47,-266.69"/>
<polygon fill="black" stroke="black" points="4380.97,-266.69 4384.47,-276.69 4387.97,-266.69 4380.97,-266.69"/>
</g>
<!-- AuthAccessTokenService -->
<g id="node8" class="node">
<title>AuthAccessTokenService</title>
<ellipse fill="#fdb462" stroke="black" cx="935" cy="-142.8" rx="111.15" ry="18"/>
<text text-anchor="middle" x="935" y="-138.6" font-family="Times,serif" font-size="14.00">AuthAccessTokenService</text>
</g>
<!-- AuthAccessTokenService&#45;&gt;AuthJwtModule -->
<g id="edge6" class="edge">
<title>AuthAccessTokenService&#45;&gt;AuthJwtModule</title>
<path fill="none" stroke="black" d="M935,-160.83C935,-180.38 935,-208.8 935,-208.8 935,-208.8 1060.35,-208.8 1060.35,-208.8"/>
<polygon fill="black" stroke="black" points="1060.35,-212.3 1070.35,-208.8 1060.35,-205.3 1060.35,-212.3"/>
</g>
<!-- AuthJwtAccessTokenStrategy -->
<g id="node9" class="node">
<title>AuthJwtAccessTokenStrategy</title>
<ellipse fill="#fdb462" stroke="black" cx="678" cy="-142.8" rx="127.93" ry="18"/>
<text text-anchor="middle" x="678" y="-138.6" font-family="Times,serif" font-size="14.00">AuthJwtAccessTokenStrategy</text>
</g>
<!-- AuthJwtAccessTokenStrategy&#45;&gt;AuthJwtModule -->
<g id="edge7" class="edge">
<title>AuthJwtAccessTokenStrategy&#45;&gt;AuthJwtModule</title>
<path fill="none" stroke="black" d="M678,-160.84C678,-182.46 678,-215.8 678,-215.8 678,-215.8 1060.2,-215.8 1060.2,-215.8"/>
<polygon fill="black" stroke="black" points="1060.2,-219.3 1070.2,-215.8 1060.2,-212.3 1060.2,-219.3"/>
</g>
<!-- AuthJwtRefreshTokenStrategy -->
<g id="node10" class="node">
<title>AuthJwtRefreshTokenStrategy</title>
<ellipse fill="#fdb462" stroke="black" cx="401" cy="-142.8" rx="130.8" ry="18"/>
<text text-anchor="middle" x="401" y="-138.6" font-family="Times,serif" font-size="14.00">AuthJwtRefreshTokenStrategy</text>
</g>
<!-- AuthJwtRefreshTokenStrategy&#45;&gt;AuthJwtModule -->
<g id="edge8" class="edge">
<title>AuthJwtRefreshTokenStrategy&#45;&gt;AuthJwtModule</title>
<path fill="none" stroke="black" d="M401,-160.95C401,-184.56 401,-222.8 401,-222.8 401,-222.8 1060.25,-222.8 1060.25,-222.8"/>
<polygon fill="black" stroke="black" points="1060.25,-226.3 1070.25,-222.8 1060.25,-219.3 1060.25,-226.3"/>
</g>
<!-- AuthRefreshTokenService -->
<g id="node11" class="node">
<title>AuthRefreshTokenService</title>
<ellipse fill="#fdb462" stroke="black" cx="138" cy="-142.8" rx="114.02" ry="18"/>
<text text-anchor="middle" x="138" y="-138.6" font-family="Times,serif" font-size="14.00">AuthRefreshTokenService</text>
</g>
<!-- AuthRefreshTokenService&#45;&gt;AuthJwtModule -->
<g id="edge9" class="edge">
<title>AuthRefreshTokenService&#45;&gt;AuthJwtModule</title>
<path fill="none" stroke="black" d="M138,-160.83C138,-186.31 138,-229.8 138,-229.8 138,-229.8 1060.29,-229.8 1060.29,-229.8"/>
<polygon fill="black" stroke="black" points="1060.29,-233.3 1070.29,-229.8 1060.29,-226.3 1060.29,-233.3"/>
</g>
<!-- AuthService -->
<g id="node12" class="node">
<title>AuthService</title>
<ellipse fill="#fdb462" stroke="black" cx="1124" cy="-142.8" rx="59.11" ry="18"/>
<text text-anchor="middle" x="1124" y="-138.6" font-family="Times,serif" font-size="14.00">AuthService</text>
</g>
<!-- AuthService&#45;&gt;AuthJwtModule -->
<g id="edge10" class="edge">
<title>AuthService&#45;&gt;AuthJwtModule</title>
<path fill="none" stroke="black" d="M1124,-160.81C1124,-160.81 1124,-190.65 1124,-190.65"/>
<polygon fill="black" stroke="black" points="1120.5,-190.65 1124,-200.65 1127.5,-190.65 1120.5,-190.65"/>
</g>
<!-- AuthAccessTokenRepository -->
<g id="node15" class="node">
<title>AuthAccessTokenRepository</title>
<ellipse fill="#fdb462" stroke="black" cx="2201" cy="-218.8" rx="124.5" ry="18"/>
<text text-anchor="middle" x="2201" y="-214.6" font-family="Times,serif" font-size="14.00">AuthAccessTokenRepository</text>
</g>
<!-- AuthAccessTokenRepository&#45;&gt;AuthJwtRepositoryModule -->
<g id="edge13" class="edge">
<title>AuthAccessTokenRepository&#45;&gt;AuthJwtRepositoryModule</title>
<path fill="none" stroke="black" d="M2201,-200.61C2201,-192.52 2201,-184.8 2201,-184.8 2201,-184.8 1319.07,-184.8 1319.07,-184.8 1319.07,-184.8 1319.07,-170.86 1319.07,-170.86"/>
<polygon fill="black" stroke="black" points="1322.57,-170.86 1319.07,-160.86 1315.57,-170.86 1322.57,-170.86"/>
</g>
<!-- AuthRefreshTokenRepository -->
<g id="node16" class="node">
<title>AuthRefreshTokenRepository</title>
<ellipse fill="#fdb462" stroke="black" cx="1931" cy="-218.8" rx="127.37" ry="18"/>
<text text-anchor="middle" x="1931" y="-214.6" font-family="Times,serif" font-size="14.00">AuthRefreshTokenRepository</text>
</g>
<!-- AuthRefreshTokenRepository&#45;&gt;AuthJwtRepositoryModule -->
<g id="edge14" class="edge">
<title>AuthRefreshTokenRepository&#45;&gt;AuthJwtRepositoryModule</title>
<path fill="none" stroke="black" d="M1931,-200.74C1931,-196.31 1931,-192.8 1931,-192.8 1931,-192.8 1291,-192.8 1291,-192.8 1291,-192.8 1291,-170.85 1291,-170.85"/>
<polygon fill="black" stroke="black" points="1294.5,-170.85 1291,-160.85 1287.5,-170.85 1294.5,-170.85"/>
</g>
<!-- AwsRepositoryModule -->
<g id="node17" class="node">
<title>AwsRepositoryModule</title>
<polygon fill="#8dd3c7" stroke="black" points="4216.16,-160.8 4213.16,-164.8 4192.16,-164.8 4189.16,-160.8 4069.84,-160.8 4069.84,-124.8 4216.16,-124.8 4216.16,-160.8"/>
<text text-anchor="middle" x="4143" y="-138.6" font-family="Times,serif" font-size="14.00">AwsRepositoryModule</text>
</g>
<!-- AwsModule -->
<g id="node18" class="node">
<title>AwsModule</title>
<polygon fill="#8dd3c7" stroke="black" points="4156.72,-236.8 4153.72,-240.8 4132.72,-240.8 4129.72,-236.8 4071.28,-236.8 4071.28,-200.8 4156.72,-200.8 4156.72,-236.8"/>
<text text-anchor="middle" x="4114" y="-214.6" font-family="Times,serif" font-size="14.00">AwsModule</text>
</g>
<!-- AwsRepositoryModule&#45;&gt;AwsModule -->
<g id="edge15" class="edge">
<title>AwsRepositoryModule&#45;&gt;AwsModule</title>
<path fill="none" stroke="black" d="M4114,-160.81C4114,-160.81 4114,-190.65 4114,-190.65"/>
<polygon fill="black" stroke="black" points="4110.5,-190.65 4114,-200.65 4117.5,-190.65 4110.5,-190.65"/>
</g>
<!-- AwsModule&#45;&gt;CommonModule -->
<g id="edge19" class="edge">
<title>AwsModule&#45;&gt;CommonModule</title>
<path fill="none" stroke="black" d="M4085.6,-236.97C4085.6,-240.85 4085.6,-243.8 4085.6,-243.8 4085.6,-243.8 1716.73,-243.8 1716.73,-243.8 1716.73,-243.8 1716.73,-266.68 1716.73,-266.68"/>
<polygon fill="black" stroke="black" points="1713.23,-266.68 1716.73,-276.68 1720.23,-266.68 1713.23,-266.68"/>
</g>
<!-- AwsS3Service  -->
<g id="node19" class="node">
<title>AwsS3Service </title>
<polygon fill="#fb8072" stroke="black" points="4215.93,-312.8 4114.07,-312.8 4114.07,-276.8 4215.93,-276.8 4215.93,-312.8"/>
<text text-anchor="middle" x="4165" y="-290.6" font-family="Times,serif" font-size="14.00">AwsS3Service </text>
</g>
<!-- AwsModule&#45;&gt;AwsS3Service  -->
<g id="edge16" class="edge">
<title>AwsModule&#45;&gt;AwsS3Service </title>
<path fill="none" stroke="black" stroke-dasharray="5,2" d="M4128.23,-236.81C4128.23,-236.81 4128.23,-266.65 4128.23,-266.65"/>
<polygon fill="black" stroke="black" points="4124.73,-266.65 4128.23,-276.65 4131.73,-266.65 4124.73,-266.65"/>
</g>
<!-- HealthModule -->
<g id="node25" class="node">
<title>HealthModule</title>
<polygon fill="#8dd3c7" stroke="black" points="4989.37,-312.8 4986.37,-316.8 4965.37,-316.8 4962.37,-312.8 4892.63,-312.8 4892.63,-276.8 4989.37,-276.8 4989.37,-312.8"/>
<text text-anchor="middle" x="4941" y="-290.6" font-family="Times,serif" font-size="14.00">HealthModule</text>
</g>
<!-- AwsModule&#45;&gt;HealthModule -->
<g id="edge25" class="edge">
<title>AwsModule&#45;&gt;HealthModule</title>
<path fill="none" stroke="black" d="M4142.42,-237.04C4142.42,-244.23 4142.42,-250.8 4142.42,-250.8 4142.42,-250.8 4924.86,-250.8 4924.86,-250.8 4924.86,-250.8 4924.86,-266.65 4924.86,-266.65"/>
<polygon fill="black" stroke="black" points="4921.36,-266.65 4924.86,-276.65 4928.36,-266.65 4921.36,-266.65"/>
</g>
<!-- RoutesModule -->
<g id="node36" class="node">
<title>RoutesModule</title>
<polygon fill="#8dd3c7" stroke="black" points="4493.44,-380.8 4490.44,-384.8 4469.44,-384.8 4466.44,-380.8 4394.56,-380.8 4394.56,-344.8 4493.44,-344.8 4493.44,-380.8"/>
<text text-anchor="middle" x="4444" y="-358.6" font-family="Times,serif" font-size="14.00">RoutesModule</text>
</g>
<!-- AwsModule&#45;&gt;RoutesModule -->
<g id="edge35" class="edge">
<title>AwsModule&#45;&gt;RoutesModule</title>
<path fill="none" stroke="black" d="M4099.82,-237.04C4099.82,-275.79 4099.82,-362.8 4099.82,-362.8 4099.82,-362.8 4384.69,-362.8 4384.69,-362.8"/>
<polygon fill="black" stroke="black" points="4384.69,-366.3 4394.69,-362.8 4384.69,-359.3 4384.69,-366.3"/>
</g>
<!-- AwsS3Service -->
<g id="node20" class="node">
<title>AwsS3Service</title>
<ellipse fill="#fdb462" stroke="black" cx="3978" cy="-142.8" rx="67.8" ry="18"/>
<text text-anchor="middle" x="3978" y="-138.6" font-family="Times,serif" font-size="14.00">AwsS3Service</text>
</g>
<!-- AwsS3Service&#45;&gt;AwsModule -->
<g id="edge17" class="edge">
<title>AwsS3Service&#45;&gt;AwsModule</title>
<path fill="none" stroke="black" d="M3978,-160.81C3978,-183.29 3978,-218.8 3978,-218.8 3978,-218.8 4061.34,-218.8 4061.34,-218.8"/>
<polygon fill="black" stroke="black" points="4061.34,-222.3 4071.34,-218.8 4061.34,-215.3 4061.34,-222.3"/>
</g>
<!-- DatabaseModule -->
<g id="node21" class="node">
<title>DatabaseModule</title>
<polygon fill="#8dd3c7" stroke="black" points="1764.36,-236.8 1761.36,-240.8 1740.36,-240.8 1737.36,-236.8 1653.64,-236.8 1653.64,-200.8 1764.36,-200.8 1764.36,-236.8"/>
<text text-anchor="middle" x="1709" y="-214.6" font-family="Times,serif" font-size="14.00">DatabaseModule</text>
</g>
<!-- DatabaseModule&#45;&gt;CommonModule -->
<g id="edge20" class="edge">
<title>DatabaseModule&#45;&gt;CommonModule</title>
<path fill="none" stroke="black" d="M1695.68,-236.81C1695.68,-236.81 1695.68,-266.65 1695.68,-266.65"/>
<polygon fill="black" stroke="black" points="1692.18,-266.65 1695.68,-276.65 1699.18,-266.65 1692.18,-266.65"/>
</g>
<!-- DatabaseOptionsService  -->
<g id="node23" class="node">
<title>DatabaseOptionsService </title>
<polygon fill="#fb8072" stroke="black" points="2192.62,-312.8 2035.38,-312.8 2035.38,-276.8 2192.62,-276.8 2192.62,-312.8"/>
<text text-anchor="middle" x="2114" y="-290.6" font-family="Times,serif" font-size="14.00">DatabaseOptionsService </text>
</g>
<!-- DatabaseModule&#45;&gt;DatabaseOptionsService  -->
<g id="edge23" class="edge">
<title>DatabaseModule&#45;&gt;DatabaseOptionsService </title>
<path fill="none" stroke="black" stroke-dasharray="5,2" d="M1737.78,-236.84C1737.78,-249.36 1737.78,-263.8 1737.78,-263.8 1737.78,-263.8 2046.94,-263.8 2046.94,-263.8 2046.94,-263.8 2046.94,-266.77 2046.94,-266.77"/>
<polygon fill="black" stroke="black" points="2043.44,-266.77 2046.94,-276.77 2050.44,-266.77 2043.44,-266.77"/>
</g>
<!-- RequestModule -->
<g id="node22" class="node">
<title>RequestModule</title>
<polygon fill="#8dd3c7" stroke="black" points="1635.16,-236.8 1632.16,-240.8 1611.16,-240.8 1608.16,-236.8 1530.84,-236.8 1530.84,-200.8 1635.16,-200.8 1635.16,-236.8"/>
<text text-anchor="middle" x="1583" y="-214.6" font-family="Times,serif" font-size="14.00">RequestModule</text>
</g>
<!-- RequestModule&#45;&gt;CommonModule -->
<g id="edge22" class="edge">
<title>RequestModule&#45;&gt;CommonModule</title>
<path fill="none" stroke="black" d="M1635.23,-218.8C1637.76,-218.8 1639.27,-218.8 1639.27,-218.8 1639.27,-218.8 1639.27,-300.8 1639.27,-300.8 1639.27,-300.8 1640.06,-300.8 1640.06,-300.8"/>
<polygon fill="black" stroke="black" points="1637.09,-304.3 1647.09,-300.8 1637.09,-297.3 1637.09,-304.3"/>
</g>
<!-- DatabaseOptionsService -->
<g id="node24" class="node">
<title>DatabaseOptionsService</title>
<ellipse fill="#fdb462" stroke="black" cx="1905" cy="-294.8" rx="105.93" ry="18"/>
<text text-anchor="middle" x="1905" y="-290.6" font-family="Times,serif" font-size="14.00">DatabaseOptionsService</text>
</g>
<!-- DatabaseOptionsService&#45;&gt;DatabaseModule -->
<g id="edge24" class="edge">
<title>DatabaseOptionsService&#45;&gt;DatabaseModule</title>
<path fill="none" stroke="black" d="M1798.87,-294.8C1788.5,-294.8 1781.73,-294.8 1781.73,-294.8 1781.73,-294.8 1781.73,-218.8 1781.73,-218.8 1781.73,-218.8 1774.5,-218.8 1774.5,-218.8"/>
<polygon fill="black" stroke="black" points="1774.5,-215.3 1764.5,-218.8 1774.5,-222.3 1774.5,-215.3"/>
</g>
<!-- HealthAwsS3Indicator  -->
<g id="node26" class="node">
<title>HealthAwsS3Indicator </title>
<polygon fill="#fb8072" stroke="black" points="5031.8,-380.8 4884.2,-380.8 4884.2,-344.8 5031.8,-344.8 5031.8,-380.8"/>
<text text-anchor="middle" x="4958" y="-358.6" font-family="Times,serif" font-size="14.00">HealthAwsS3Indicator </text>
</g>
<!-- HealthModule&#45;&gt;HealthAwsS3Indicator  -->
<g id="edge26" class="edge">
<title>HealthModule&#45;&gt;HealthAwsS3Indicator </title>
<path fill="none" stroke="black" stroke-dasharray="5,2" d="M4941,-313.02C4941,-313.02 4941,-334.53 4941,-334.53"/>
<polygon fill="black" stroke="black" points="4937.5,-334.53 4941,-344.53 4944.5,-334.53 4937.5,-334.53"/>
</g>
<!-- HealthModule&#45;&gt;RoutesModule -->
<g id="edge36" class="edge">
<title>HealthModule&#45;&gt;RoutesModule</title>
<path fill="none" stroke="black" d="M4892.31,-294.8C4835.72,-294.8 4750,-294.8 4750,-294.8 4750,-294.8 4750,-362.8 4750,-362.8 4750,-362.8 4503.5,-362.8 4503.5,-362.8"/>
<polygon fill="black" stroke="black" points="4503.5,-359.3 4493.5,-362.8 4503.5,-366.3 4503.5,-359.3"/>
</g>
<!-- HealthAwsS3Indicator -->
<g id="node27" class="node">
<title>HealthAwsS3Indicator</title>
<ellipse fill="#fdb462" stroke="black" cx="4984" cy="-218.8" rx="99.58" ry="18"/>
<text text-anchor="middle" x="4984" y="-214.6" font-family="Times,serif" font-size="14.00">HealthAwsS3Indicator</text>
</g>
<!-- HealthAwsS3Indicator&#45;&gt;HealthModule -->
<g id="edge27" class="edge">
<title>HealthAwsS3Indicator&#45;&gt;HealthModule</title>
<path fill="none" stroke="black" d="M4957.14,-236.43C4957.14,-236.43 4957.14,-266.74 4957.14,-266.74"/>
<polygon fill="black" stroke="black" points="4953.64,-266.74 4957.14,-276.74 4960.64,-266.74 4953.64,-266.74"/>
</g>
<!-- HelperEncryptionService -->
<g id="node31" class="node">
<title>HelperEncryptionService</title>
<ellipse fill="#fdb462" stroke="black" cx="3277" cy="-218.8" rx="109.35" ry="18"/>
<text text-anchor="middle" x="3277" y="-214.6" font-family="Times,serif" font-size="14.00">HelperEncryptionService</text>
</g>
<!-- HelperEncryptionService&#45;&gt;HelperModule -->
<g id="edge31" class="edge">
<title>HelperEncryptionService&#45;&gt;HelperModule</title>
<path fill="none" stroke="black" d="M3277,-200.79C3277,-178.31 3277,-142.8 3277,-142.8 3277,-142.8 1501.08,-142.8 1501.08,-142.8"/>
<polygon fill="black" stroke="black" points="1501.08,-139.3 1491.08,-142.8 1501.08,-146.3 1501.08,-139.3"/>
</g>
<!-- HelperHashService -->
<g id="node32" class="node">
<title>HelperHashService</title>
<ellipse fill="#fdb462" stroke="black" cx="3064" cy="-218.8" rx="86.23" ry="18"/>
<text text-anchor="middle" x="3064" y="-214.6" font-family="Times,serif" font-size="14.00">HelperHashService</text>
</g>
<!-- HelperHashService&#45;&gt;HelperModule -->
<g id="edge32" class="edge">
<title>HelperHashService&#45;&gt;HelperModule</title>
<path fill="none" stroke="black" d="M3064,-200.52C3064,-179.48 3064,-147.8 3064,-147.8 3064,-147.8 1500.99,-147.8 1500.99,-147.8"/>
<polygon fill="black" stroke="black" points="1500.99,-144.3 1490.99,-147.8 1500.99,-151.3 1500.99,-144.3"/>
</g>
<!-- HelperStringService -->
<g id="node33" class="node">
<title>HelperStringService</title>
<ellipse fill="#fdb462" stroke="black" cx="2870" cy="-218.8" rx="89.75" ry="18"/>
<text text-anchor="middle" x="2870" y="-214.6" font-family="Times,serif" font-size="14.00">HelperStringService</text>
</g>
<!-- HelperStringService&#45;&gt;HelperModule -->
<g id="edge33" class="edge">
<title>HelperStringService&#45;&gt;HelperModule</title>
<path fill="none" stroke="black" d="M2870,-200.49C2870,-180.65 2870,-151.8 2870,-151.8 2870,-151.8 1500.74,-151.8 1500.74,-151.8"/>
<polygon fill="black" stroke="black" points="1500.74,-148.3 1490.74,-151.8 1500.74,-155.3 1500.74,-148.3"/>
</g>
<!-- RoleRepositoryModule -->
<g id="node34" class="node">
<title>RoleRepositoryModule</title>
<polygon fill="#8dd3c7" stroke="black" points="4843.94,-160.8 4840.94,-164.8 4819.94,-164.8 4816.94,-160.8 4696.06,-160.8 4696.06,-124.8 4843.94,-124.8 4843.94,-160.8"/>
<text text-anchor="middle" x="4770" y="-138.6" font-family="Times,serif" font-size="14.00">RoleRepositoryModule</text>
</g>
<!-- RoleModule -->
<g id="node35" class="node">
<title>RoleModule</title>
<polygon fill="#8dd3c7" stroke="black" points="4792.99,-236.8 4789.99,-240.8 4768.99,-240.8 4765.99,-236.8 4707.01,-236.8 4707.01,-200.8 4792.99,-200.8 4792.99,-236.8"/>
<text text-anchor="middle" x="4750" y="-214.6" font-family="Times,serif" font-size="14.00">RoleModule</text>
</g>
<!-- RoleRepositoryModule&#45;&gt;RoleModule -->
<g id="edge34" class="edge">
<title>RoleRepositoryModule&#45;&gt;RoleModule</title>
<path fill="none" stroke="black" d="M4750,-160.81C4750,-160.81 4750,-190.65 4750,-190.65"/>
<polygon fill="black" stroke="black" points="4746.5,-190.65 4750,-200.65 4753.5,-190.65 4746.5,-190.65"/>
</g>
<!-- RoleModule&#45;&gt;RoutesPublicModule -->
<g id="edge38" class="edge">
<title>RoleModule&#45;&gt;RoutesPublicModule</title>
<path fill="none" stroke="black" d="M4706.83,-224.8C4634.23,-224.8 4495.53,-224.8 4495.53,-224.8 4495.53,-224.8 4495.53,-266.77 4495.53,-266.77"/>
<polygon fill="black" stroke="black" points="4492.03,-266.77 4495.53,-276.77 4499.03,-266.77 4492.03,-266.77"/>
</g>
<!-- UserModule -->
<g id="node37" class="node">
<title>UserModule</title>
<polygon fill="#8dd3c7" stroke="black" points="4482.99,-236.8 4479.99,-240.8 4458.99,-240.8 4455.99,-236.8 4397.01,-236.8 4397.01,-200.8 4482.99,-200.8 4482.99,-236.8"/>
<text text-anchor="middle" x="4440" y="-214.6" font-family="Times,serif" font-size="14.00">UserModule</text>
</g>
<!-- UserModule&#45;&gt;RoutesPublicModule -->
<g id="edge39" class="edge">
<title>UserModule&#45;&gt;RoutesPublicModule</title>
<path fill="none" stroke="black" d="M4440,-236.81C4440,-236.81 4440,-266.65 4440,-266.65"/>
<polygon fill="black" stroke="black" points="4436.5,-266.65 4440,-276.65 4443.5,-266.65 4436.5,-266.65"/>
</g>
<!-- UserService  -->
<g id="node40" class="node">
<title>UserService </title>
<polygon fill="#fb8072" stroke="black" points="4483.91,-160.8 4396.09,-160.8 4396.09,-124.8 4483.91,-124.8 4483.91,-160.8"/>
<text text-anchor="middle" x="4440" y="-138.6" font-family="Times,serif" font-size="14.00">UserService </text>
</g>
<!-- UserModule&#45;&gt;UserService  -->
<g id="edge41" class="edge">
<title>UserModule&#45;&gt;UserService </title>
<path fill="none" stroke="black" stroke-dasharray="5,2" d="M4440,-200.79C4440,-200.79 4440,-170.95 4440,-170.95"/>
<polygon fill="black" stroke="black" points="4443.5,-170.95 4440,-160.95 4436.5,-170.95 4443.5,-170.95"/>
</g>
<!-- UserRepositoryModule -->
<g id="node39" class="node">
<title>UserRepositoryModule</title>
<polygon fill="#8dd3c7" stroke="black" points="4655.93,-160.8 4652.93,-164.8 4631.93,-164.8 4628.93,-160.8 4508.07,-160.8 4508.07,-124.8 4655.93,-124.8 4655.93,-160.8"/>
<text text-anchor="middle" x="4582" y="-138.6" font-family="Times,serif" font-size="14.00">UserRepositoryModule</text>
</g>
<!-- UserRepositoryModule&#45;&gt;UserModule -->
<g id="edge40" class="edge">
<title>UserRepositoryModule&#45;&gt;UserModule</title>
<path fill="none" stroke="black" d="M4582,-160.83C4582,-181.57 4582,-212.8 4582,-212.8 4582,-212.8 4492.99,-212.8 4492.99,-212.8"/>
<polygon fill="black" stroke="black" points="4492.99,-209.3 4482.99,-212.8 4492.99,-216.3 4492.99,-209.3"/>
</g>
<!-- UserRepository  -->
<g id="node42" class="node">
<title>UserRepository </title>
<polygon fill="#fb8072" stroke="black" points="4710.88,-84.8 4603.12,-84.8 4603.12,-48.8 4710.88,-48.8 4710.88,-84.8"/>
<text text-anchor="middle" x="4657" y="-62.6" font-family="Times,serif" font-size="14.00">UserRepository </text>
</g>
<!-- UserRepositoryModule&#45;&gt;UserRepository  -->
<g id="edge43" class="edge">
<title>UserRepositoryModule&#45;&gt;UserRepository </title>
<path fill="none" stroke="black" stroke-dasharray="5,2" d="M4629.51,-124.79C4629.51,-124.79 4629.51,-94.95 4629.51,-94.95"/>
<polygon fill="black" stroke="black" points="4633.01,-94.95 4629.51,-84.95 4626.01,-94.95 4633.01,-94.95"/>
</g>
<!-- UserService -->
<g id="node41" class="node">
<title>UserService</title>
<ellipse fill="#fdb462" stroke="black" cx="4314" cy="-142.8" rx="58.46" ry="18"/>
<text text-anchor="middle" x="4314" y="-138.6" font-family="Times,serif" font-size="14.00">UserService</text>
</g>
<!-- UserService&#45;&gt;UserModule -->
<g id="edge42" class="edge">
<title>UserService&#45;&gt;UserModule</title>
<path fill="none" stroke="black" d="M4314,-160.81C4314,-183.29 4314,-218.8 4314,-218.8 4314,-218.8 4386.99,-218.8 4386.99,-218.8"/>
<polygon fill="black" stroke="black" points="4386.99,-222.3 4396.99,-218.8 4386.99,-215.3 4386.99,-222.3"/>
</g>
<!-- UserRepository -->
<g id="node43" class="node">
<title>UserRepository</title>
<ellipse fill="#fdb462" stroke="black" cx="4507" cy="-66.8" rx="71.8" ry="18"/>
<text text-anchor="middle" x="4507" y="-62.6" font-family="Times,serif" font-size="14.00">UserRepository</text>
</g>
<!-- UserRepository&#45;&gt;UserRepositoryModule -->
<g id="edge44" class="edge">
<title>UserRepository&#45;&gt;UserRepositoryModule</title>
<path fill="none" stroke="black" d="M4543.47,-82.55C4543.47,-82.55 4543.47,-114.67 4543.47,-114.67"/>
<polygon fill="black" stroke="black" points="4539.97,-114.67 4543.47,-124.67 4546.97,-114.67 4539.97,-114.67"/>
</g>
</g>
</svg>
