<?xml version="1.0" encoding="UTF-8" standalone="no"?>
<!DOCTYPE svg PUBLIC "-//W3C//DTD SVG 1.1//EN"
 "http://www.w3.org/Graphics/SVG/1.1/DTD/svg11.dtd">
<!-- Generated by graphviz version 5.0.0 (20220707.1540)
 -->
<!-- Title: dependencies Pages: 1 -->
<svg width="5797pt" height="413pt"
 viewBox="0.00 0.00 5797.00 412.80" xmlns="http://www.w3.org/2000/svg" xmlns:xlink="http://www.w3.org/1999/xlink">
<g id="graph0" class="graph" transform="scale(1 1) rotate(0) translate(4 408.8)">
<title>dependencies</title>
<polygon fill="white" stroke="transparent" points="-4,4 -4,-408.8 5793,-408.8 5793,4 -4,4"/>
<text text-anchor="middle" x="2894.5" y="-8.2" font-family="sans-serif" font-size="14.00">dependencies</text>
<g id="clust1" class="cluster">
<title>cluster_AppModule</title>
<polygon fill="none" stroke="black" stroke-dasharray="1,5" points="3967,-260.8 3967,-388.8 4227,-388.8 4227,-260.8 3967,-260.8"/>
</g>
<g id="clust3" class="cluster">
<title>cluster_AppModule_imports</title>
<polygon fill="none" stroke="black" points="3975,-268.8 3975,-320.8 4219,-320.8 4219,-268.8 3975,-268.8"/>
</g>
<g id="clust7" class="cluster">
<title>cluster_AuthJwtModule</title>
<polygon fill="none" stroke="black" stroke-dasharray="1,5" points="8,-108.8 8,-328.8 1507,-328.8 1507,-108.8 8,-108.8"/>
</g>
<g id="clust9" class="cluster">
<title>cluster_AuthJwtModule_imports</title>
<polygon fill="none" stroke="black" points="1199,-116.8 1199,-168.8 1499,-168.8 1499,-116.8 1199,-116.8"/>
</g>
<g id="clust10" class="cluster">
<title>cluster_AuthJwtModule_exports</title>
<polygon fill="none" stroke="black" points="1071,-268.8 1071,-320.8 1177,-320.8 1177,-268.8 1071,-268.8"/>
</g>
<g id="clust12" class="cluster">
<title>cluster_AuthJwtModule_providers</title>
<polygon fill="none" stroke="black" points="16,-116.8 16,-168.8 1191,-168.8 1191,-116.8 16,-116.8"/>
</g>
<g id="clust13" class="cluster">
<title>cluster_AuthJwtRepositoryModule</title>
<polygon fill="none" stroke="black" stroke-dasharray="1,5" points="1515,-184.8 1515,-252.8 2483,-252.8 2483,-184.8 1515,-184.8"/>
</g>
<g id="clust16" class="cluster">
<title>cluster_AuthJwtRepositoryModule_exports</title>
<polygon fill="none" stroke="black" points="2069,-192.8 2069,-244.8 2475,-244.8 2475,-192.8 2069,-192.8"/>
</g>
<g id="clust18" class="cluster">
<title>cluster_AuthJwtRepositoryModule_providers</title>
<polygon fill="none" stroke="black" points="1523,-192.8 1523,-244.8 2061,-244.8 2061,-192.8 1523,-192.8"/>
</g>
<g id="clust19" class="cluster">
<title>cluster_AwsModule</title>
<polygon fill="none" stroke="black" stroke-dasharray="1,5" points="3621,-108.8 3621,-328.8 3959,-328.8 3959,-108.8 3621,-108.8"/>
</g>
<g id="clust21" class="cluster">
<title>cluster_AwsModule_imports</title>
<polygon fill="none" stroke="black" points="3789,-116.8 3789,-168.8 3951,-168.8 3951,-116.8 3789,-116.8"/>
</g>
<g id="clust22" class="cluster">
<title>cluster_AwsModule_exports</title>
<polygon fill="none" stroke="black" points="3833,-268.8 3833,-320.8 3951,-320.8 3951,-268.8 3833,-268.8"/>
</g>
<g id="clust24" class="cluster">
<title>cluster_AwsModule_providers</title>
<polygon fill="none" stroke="black" points="3629,-116.8 3629,-168.8 3781,-168.8 3781,-116.8 3629,-116.8"/>
</g>
<g id="clust31" class="cluster">
<title>cluster_CommonModule</title>
<polygon fill="none" stroke="black" stroke-dasharray="1,5" points="4036,-184.8 4036,-252.8 4537,-252.8 4537,-184.8 4036,-184.8"/>
</g>
<g id="clust33" class="cluster">
<title>cluster_CommonModule_imports</title>
<polygon fill="none" stroke="black" points="4044,-192.8 4044,-244.8 4529,-244.8 4529,-192.8 4044,-192.8"/>
</g>
<g id="clust37" class="cluster">
<title>cluster_DatabaseModule</title>
<polygon fill="none" stroke="black" stroke-dasharray="1,5" points="4263,-260.8 4263,-328.8 4689,-328.8 4689,-260.8 4263,-260.8"/>
</g>
<g id="clust40" class="cluster">
<title>cluster_DatabaseModule_exports</title>
<polygon fill="none" stroke="black" points="4507,-268.8 4507,-320.8 4681,-320.8 4681,-268.8 4507,-268.8"/>
</g>
<g id="clust42" class="cluster">
<title>cluster_DatabaseModule_providers</title>
<polygon fill="none" stroke="black" points="4271,-268.8 4271,-320.8 4499,-320.8 4499,-268.8 4271,-268.8"/>
</g>
<g id="clust43" class="cluster">
<title>cluster_HealthModule</title>
<polygon fill="none" stroke="black" stroke-dasharray="1,5" points="4697,-184.8 4697,-396.8 4929,-396.8 4929,-184.8 4697,-184.8"/>
</g>
<g id="clust46" class="cluster">
<title>cluster_HealthModule_exports</title>
<polygon fill="none" stroke="black" points="4705,-336.8 4705,-388.8 4869,-388.8 4869,-336.8 4705,-336.8"/>
</g>
<g id="clust48" class="cluster">
<title>cluster_HealthModule_providers</title>
<polygon fill="none" stroke="black" points="4705,-192.8 4705,-244.8 4921,-244.8 4921,-192.8 4705,-192.8"/>
</g>
<g id="clust49" class="cluster">
<title>cluster_HelperModule</title>
<polygon fill="none" stroke="black" stroke-dasharray="1,5" points="2491,-184.8 2491,-252.8 3613,-252.8 3613,-184.8 2491,-184.8"/>
</g>
<g id="clust52" class="cluster">
<title>cluster_HelperModule_exports</title>
<polygon fill="none" stroke="black" points="3129,-192.8 3129,-244.8 3605,-244.8 3605,-192.8 3129,-192.8"/>
</g>
<g id="clust54" class="cluster">
<title>cluster_HelperModule_providers</title>
<polygon fill="none" stroke="black" points="2499,-192.8 2499,-244.8 3121,-244.8 3121,-192.8 2499,-192.8"/>
</g>
<g id="clust55" class="cluster">
<title>cluster_LoggerModule</title>
<polygon fill="none" stroke="black" stroke-dasharray="1,5" points="4451,-108.8 4451,-176.8 4645,-176.8 4645,-108.8 4451,-108.8"/>
</g>
<g id="clust57" class="cluster">
<title>cluster_LoggerModule_imports</title>
<polygon fill="none" stroke="black" points="4459,-116.8 4459,-168.8 4637,-168.8 4637,-116.8 4459,-116.8"/>
</g>
<g id="clust67" class="cluster">
<title>cluster_PermissionModule</title>
<polygon fill="none" stroke="black" stroke-dasharray="1,5" points="5565,-32.8 5565,-168.8 5781,-168.8 5781,-32.8 5565,-32.8"/>
</g>
<g id="clust69" class="cluster">
<title>cluster_PermissionModule_imports</title>
<polygon fill="none" stroke="black" points="5573,-40.8 5573,-92.8 5773,-92.8 5773,-40.8 5573,-40.8"/>
</g>
<g id="clust85" class="cluster">
<title>cluster_RoleModule</title>
<polygon fill="none" stroke="black" stroke-dasharray="1,5" points="4937,-108.8 4937,-244.8 5117,-244.8 5117,-108.8 4937,-108.8"/>
</g>
<g id="clust87" class="cluster">
<title>cluster_RoleModule_imports</title>
<polygon fill="none" stroke="black" points="4945,-116.8 4945,-168.8 5109,-168.8 5109,-116.8 4945,-116.8"/>
</g>
<g id="clust103" class="cluster">
<title>cluster_RoutesAdminModule</title>
<polygon fill="none" stroke="black" stroke-dasharray="1,5" points="5596,-192.8 5596,-244.8 5750,-244.8 5750,-192.8 5596,-192.8"/>
</g>
<g id="clust109" class="cluster">
<title>cluster_RoutesModule</title>
<polygon fill="none" stroke="black" stroke-dasharray="1,5" points="4405,-336.8 4405,-388.8 4519,-388.8 4519,-336.8 4405,-336.8"/>
</g>
<g id="clust115" class="cluster">
<title>cluster_RoutesPublicModule</title>
<polygon fill="none" stroke="black" stroke-dasharray="1,5" points="5125,-184.8 5125,-320.8 5275,-320.8 5275,-184.8 5125,-184.8"/>
</g>
<g id="clust117" class="cluster">
<title>cluster_RoutesPublicModule_imports</title>
<polygon fill="none" stroke="black" points="5157,-192.8 5157,-244.8 5259,-244.8 5259,-192.8 5157,-192.8"/>
</g>
<g id="clust121" class="cluster">
<title>cluster_SettingModule</title>
<polygon fill="none" stroke="black" stroke-dasharray="1,5" points="3967,-108.8 3967,-176.8 4443,-176.8 4443,-108.8 3967,-108.8"/>
</g>
<g id="clust123" class="cluster">
<title>cluster_SettingModule_imports</title>
<polygon fill="none" stroke="black" points="4259,-116.8 4259,-168.8 4435,-168.8 4435,-116.8 4259,-116.8"/>
</g>
<g id="clust124" class="cluster">
<title>cluster_SettingModule_exports</title>
<polygon fill="none" stroke="black" points="4133,-116.8 4133,-168.8 4251,-168.8 4251,-116.8 4133,-116.8"/>
</g>
<g id="clust126" class="cluster">
<title>cluster_SettingModule_providers</title>
<polygon fill="none" stroke="black" points="3975,-116.8 3975,-168.8 4125,-168.8 4125,-116.8 3975,-116.8"/>
</g>
<g id="clust133" class="cluster">
<title>cluster_UserModule</title>
<polygon fill="none" stroke="black" stroke-dasharray="1,5" points="5125,-108.8 5125,-176.8 5557,-176.8 5557,-108.8 5125,-108.8"/>
</g>
<g id="clust135" class="cluster">
<title>cluster_UserModule_imports</title>
<polygon fill="none" stroke="black" points="5385,-116.8 5385,-168.8 5549,-168.8 5549,-116.8 5385,-116.8"/>
</g>
<g id="clust136" class="cluster">
<title>cluster_UserModule_exports</title>
<polygon fill="none" stroke="black" points="5273,-116.8 5273,-168.8 5377,-168.8 5377,-116.8 5273,-116.8"/>
</g>
<g id="clust138" class="cluster">
<title>cluster_UserModule_providers</title>
<polygon fill="none" stroke="black" points="5133,-116.8 5133,-168.8 5265,-168.8 5265,-116.8 5133,-116.8"/>
</g>
<g id="clust139" class="cluster">
<title>cluster_UserRepositoryModule</title>
<polygon fill="none" stroke="black" stroke-dasharray="1,5" points="5239,-32.8 5239,-100.8 5547,-100.8 5547,-32.8 5239,-32.8"/>
</g>
<g id="clust142" class="cluster">
<title>cluster_UserRepositoryModule_exports</title>
<polygon fill="none" stroke="black" points="5415,-40.8 5415,-92.8 5539,-92.8 5539,-40.8 5415,-40.8"/>
</g>
<g id="clust144" class="cluster">
<title>cluster_UserRepositoryModule_providers</title>
<polygon fill="none" stroke="black" points="5247,-40.8 5247,-92.8 5407,-92.8 5407,-40.8 5247,-40.8"/>
</g>
<!-- CommonModule -->
<g id="node1" class="node">
<title>CommonModule</title>
<polygon fill="#8dd3c7" stroke="black" points="4210.67,-312.8 4207.67,-316.8 4186.67,-316.8 4183.67,-312.8 4099.33,-312.8 4099.33,-276.8 4210.67,-276.8 4210.67,-312.8"/>
<text text-anchor="middle" x="4155" y="-290.6" font-family="Times,serif" font-size="14.00">CommonModule</text>
</g>
<!-- AppModule -->
<g id="node3" class="node">
<title>AppModule</title>
<polygon fill="#8dd3c7" stroke="black" points="4134.66,-380.8 4131.66,-384.8 4110.66,-384.8 4107.66,-380.8 4051.34,-380.8 4051.34,-344.8 4134.66,-344.8 4134.66,-380.8"/>
<text text-anchor="middle" x="4093" y="-358.6" font-family="Times,serif" font-size="14.00">AppModule</text>
</g>
<!-- CommonModule&#45;&gt;AppModule -->
<g id="edge1" class="edge">
<title>CommonModule&#45;&gt;AppModule</title>
<path fill="none" stroke="black" d="M4117,-313.02C4117,-313.02 4117,-334.53 4117,-334.53"/>
<polygon fill="black" stroke="black" points="4113.5,-334.53 4117,-344.53 4120.5,-334.53 4113.5,-334.53"/>
</g>
<!-- RouterModule -->
<g id="node2" class="node">
<title>RouterModule</title>
<polygon fill="#8dd3c7" stroke="black" points="4080.66,-312.8 4077.66,-316.8 4056.66,-316.8 4053.66,-312.8 3983.34,-312.8 3983.34,-276.8 4080.66,-276.8 4080.66,-312.8"/>
<text text-anchor="middle" x="4032" y="-290.6" font-family="Times,serif" font-size="14.00">RouterModule</text>
</g>
<!-- RouterModule&#45;&gt;AppModule -->
<g id="edge2" class="edge">
<title>RouterModule&#45;&gt;AppModule</title>
<path fill="none" stroke="black" d="M4066,-313.02C4066,-313.02 4066,-334.53 4066,-334.53"/>
<polygon fill="black" stroke="black" points="4062.5,-334.53 4066,-344.53 4069.5,-334.53 4062.5,-334.53"/>
</g>
<!-- AuthJwtRepositoryModule -->
<g id="node4" class="node">
<title>AuthJwtRepositoryModule</title>
<polygon fill="#8dd3c7" stroke="black" points="1375.44,-160.8 1372.44,-164.8 1351.44,-164.8 1348.44,-160.8 1206.56,-160.8 1206.56,-124.8 1375.44,-124.8 1375.44,-160.8"/>
<text text-anchor="middle" x="1291" y="-138.6" font-family="Times,serif" font-size="14.00">AuthJwtRepositoryModule</text>
</g>
<!-- AuthJwtModule -->
<g id="node6" class="node">
<title>AuthJwtModule</title>
<polygon fill="#8dd3c7" stroke="black" points="1177.5,-236.8 1174.5,-240.8 1153.5,-240.8 1150.5,-236.8 1070.5,-236.8 1070.5,-200.8 1177.5,-200.8 1177.5,-236.8"/>
<text text-anchor="middle" x="1124" y="-214.6" font-family="Times,serif" font-size="14.00">AuthJwtModule</text>
</g>
<!-- AuthJwtRepositoryModule&#45;&gt;AuthJwtModule -->
<g id="edge3" class="edge">
<title>AuthJwtRepositoryModule&#45;&gt;AuthJwtModule</title>
<path fill="none" stroke="black" d="M1319.07,-160.81C1319.07,-183.29 1319.07,-218.8 1319.07,-218.8 1319.07,-218.8 1187.56,-218.8 1187.56,-218.8"/>
<polygon fill="black" stroke="black" points="1187.56,-215.3 1177.56,-218.8 1187.56,-222.3 1187.56,-215.3"/>
</g>
<!-- AuthAccessTokenRepository  -->
<g id="node13" class="node">
<title>AuthAccessTokenRepository </title>
<polygon fill="#fb8072" stroke="black" points="2261.36,-236.8 2076.64,-236.8 2076.64,-200.8 2261.36,-200.8 2261.36,-236.8"/>
<text text-anchor="middle" x="2169" y="-214.6" font-family="Times,serif" font-size="14.00">AuthAccessTokenRepository </text>
</g>
<!-- AuthJwtRepositoryModule&#45;&gt;AuthAccessTokenRepository  -->
<g id="edge11" class="edge">
<title>AuthJwtRepositoryModule&#45;&gt;AuthAccessTokenRepository </title>
<path fill="none" stroke="black" stroke-dasharray="5,2" d="M1234.85,-161.04C1234.85,-168.23 1234.85,-174.8 1234.85,-174.8 1234.85,-174.8 2169,-174.8 2169,-174.8 2169,-174.8 2169,-190.65 2169,-190.65"/>
<polygon fill="black" stroke="black" points="2165.5,-190.65 2169,-200.65 2172.5,-190.65 2165.5,-190.65"/>
</g>
<!-- AuthRefreshTokenRepository  -->
<g id="node14" class="node">
<title>AuthRefreshTokenRepository </title>
<polygon fill="#fb8072" stroke="black" points="2467.25,-236.8 2278.75,-236.8 2278.75,-200.8 2467.25,-200.8 2467.25,-236.8"/>
<text text-anchor="middle" x="2373" y="-214.6" font-family="Times,serif" font-size="14.00">AuthRefreshTokenRepository </text>
</g>
<!-- AuthJwtRepositoryModule&#45;&gt;AuthRefreshTokenRepository  -->
<g id="edge12" class="edge">
<title>AuthJwtRepositoryModule&#45;&gt;AuthRefreshTokenRepository </title>
<path fill="none" stroke="black" stroke-dasharray="5,2" d="M1262.93,-160.97C1262.93,-164.85 1262.93,-167.8 1262.93,-167.8 1262.93,-167.8 2373,-167.8 2373,-167.8 2373,-167.8 2373,-190.68 2373,-190.68"/>
<polygon fill="black" stroke="black" points="2369.5,-190.68 2373,-200.68 2376.5,-190.68 2369.5,-190.68"/>
</g>
<!-- HelperModule -->
<g id="node5" class="node">
<title>HelperModule</title>
<polygon fill="#8dd3c7" stroke="black" points="1490.64,-160.8 1487.64,-164.8 1466.64,-164.8 1463.64,-160.8 1393.36,-160.8 1393.36,-124.8 1490.64,-124.8 1490.64,-160.8"/>
<text text-anchor="middle" x="1442" y="-138.6" font-family="Times,serif" font-size="14.00">HelperModule</text>
</g>
<!-- HelperModule&#45;&gt;CommonModule -->
<g id="edge21" class="edge">
<title>HelperModule&#45;&gt;CommonModule</title>
<path fill="none" stroke="black" d="M1458.27,-160.83C1458.27,-195.22 1458.27,-266.8 1458.27,-266.8 1458.27,-266.8 4120.14,-266.8 4120.14,-266.8 4120.14,-266.8 4120.14,-267.78 4120.14,-267.78"/>
<polygon fill="black" stroke="black" points="4116.64,-266.59 4120.14,-276.59 4123.64,-266.59 4116.64,-266.59"/>
</g>
<!-- HelperModule&#45;&gt;AuthJwtModule -->
<g id="edge4" class="edge">
<title>HelperModule&#45;&gt;AuthJwtModule</title>
<path fill="none" stroke="black" d="M1425.73,-160.83C1425.73,-185.78 1425.73,-227.8 1425.73,-227.8 1425.73,-227.8 1187.59,-227.8 1187.59,-227.8"/>
<polygon fill="black" stroke="black" points="1187.59,-224.3 1177.59,-227.8 1187.59,-231.3 1187.59,-224.3"/>
</g>
<!-- HelperEncryptionService  -->
<g id="node30" class="node">
<title>HelperEncryptionService </title>
<polygon fill="#fb8072" stroke="black" points="3596.78,-236.8 3435.22,-236.8 3435.22,-200.8 3596.78,-200.8 3596.78,-236.8"/>
<text text-anchor="middle" x="3516" y="-214.6" font-family="Times,serif" font-size="14.00">HelperEncryptionService </text>
</g>
<!-- HelperModule&#45;&gt;HelperEncryptionService  -->
<g id="edge30" class="edge">
<title>HelperModule&#45;&gt;HelperEncryptionService </title>
<path fill="none" stroke="black" stroke-dasharray="5,2" d="M1490.72,-130.8C1803.46,-130.8 3516,-130.8 3516,-130.8 3516,-130.8 3516,-190.57 3516,-190.57"/>
<polygon fill="black" stroke="black" points="3512.5,-190.57 3516,-200.57 3519.5,-190.57 3512.5,-190.57"/>
</g>
<!-- HelperHashService  -->
<g id="node31" class="node">
<title>HelperHashService </title>
<polygon fill="#fb8072" stroke="black" points="3417.34,-236.8 3288.66,-236.8 3288.66,-200.8 3417.34,-200.8 3417.34,-236.8"/>
<text text-anchor="middle" x="3353" y="-214.6" font-family="Times,serif" font-size="14.00">HelperHashService </text>
</g>
<!-- HelperModule&#45;&gt;HelperHashService  -->
<g id="edge31" class="edge">
<title>HelperModule&#45;&gt;HelperHashService </title>
<path fill="none" stroke="black" stroke-dasharray="5,2" d="M1490.68,-135.8C1788.59,-135.8 3353,-135.8 3353,-135.8 3353,-135.8 3353,-190.79 3353,-190.79"/>
<polygon fill="black" stroke="black" points="3349.5,-190.79 3353,-200.79 3356.5,-190.79 3349.5,-190.79"/>
</g>
<!-- HelperStringService  -->
<g id="node32" class="node">
<title>HelperStringService </title>
<polygon fill="#fb8072" stroke="black" points="3270.8,-236.8 3137.2,-236.8 3137.2,-200.8 3270.8,-200.8 3270.8,-236.8"/>
<text text-anchor="middle" x="3204" y="-214.6" font-family="Times,serif" font-size="14.00">HelperStringService </text>
</g>
<!-- HelperModule&#45;&gt;HelperStringService  -->
<g id="edge32" class="edge">
<title>HelperModule&#45;&gt;HelperStringService </title>
<path fill="none" stroke="black" stroke-dasharray="5,2" d="M1490.96,-140.8C1775.54,-140.8 3204,-140.8 3204,-140.8 3204,-140.8 3204,-190.71 3204,-190.71"/>
<polygon fill="black" stroke="black" points="3200.5,-190.71 3204,-200.71 3207.5,-190.71 3200.5,-190.71"/>
</g>
<!-- AuthJwtModule&#45;&gt;CommonModule -->
<g id="edge18" class="edge">
<title>AuthJwtModule&#45;&gt;CommonModule</title>
<path fill="none" stroke="black" d="M1171.66,-237.04C1171.66,-252.37 1171.66,-271.8 1171.66,-271.8 1171.66,-271.8 4109.65,-271.8 4109.65,-271.8 4109.65,-271.8 4109.65,-272.29 4109.65,-272.29"/>
<polygon fill="black" stroke="black" points="4106.15,-266.68 4109.65,-276.68 4113.15,-266.68 4106.15,-266.68"/>
</g>
<!-- AuthService  -->
<g id="node7" class="node">
<title>AuthService </title>
<polygon fill="#fb8072" stroke="black" points="1168.98,-312.8 1079.02,-312.8 1079.02,-276.8 1168.98,-276.8 1168.98,-312.8"/>
<text text-anchor="middle" x="1124" y="-290.6" font-family="Times,serif" font-size="14.00">AuthService </text>
</g>
<!-- AuthJwtModule&#45;&gt;AuthService  -->
<g id="edge5" class="edge">
<title>AuthJwtModule&#45;&gt;AuthService </title>
<path fill="none" stroke="black" stroke-dasharray="5,2" d="M1124,-236.81C1124,-236.81 1124,-266.65 1124,-266.65"/>
<polygon fill="black" stroke="black" points="1120.5,-266.65 1124,-276.65 1127.5,-266.65 1120.5,-266.65"/>
</g>
<!-- RoutesPublicModule -->
<g id="node44" class="node">
<title>RoutesPublicModule</title>
<polygon fill="#8dd3c7" stroke="black" points="5267.22,-312.8 5264.22,-316.8 5243.22,-316.8 5240.22,-312.8 5132.78,-312.8 5132.78,-276.8 5267.22,-276.8 5267.22,-312.8"/>
<text text-anchor="middle" x="5200" y="-290.6" font-family="Times,serif" font-size="14.00">RoutesPublicModule</text>
</g>
<!-- AuthJwtModule&#45;&gt;RoutesPublicModule -->
<g id="edge42" class="edge">
<title>AuthJwtModule&#45;&gt;RoutesPublicModule</title>
<path fill="none" stroke="black" d="M1174.58,-236.92C1174.58,-239.77 1174.58,-241.8 1174.58,-241.8 1174.58,-241.8 5135.52,-241.8 5135.52,-241.8 5135.52,-241.8 5135.52,-266.56 5135.52,-266.56"/>
<polygon fill="black" stroke="black" points="5132.02,-266.56 5135.52,-276.56 5139.02,-266.56 5132.02,-266.56"/>
</g>
<!-- AuthAccessTokenService -->
<g id="node8" class="node">
<title>AuthAccessTokenService</title>
<ellipse fill="#fdb462" stroke="black" cx="935" cy="-142.8" rx="111.15" ry="18"/>
<text text-anchor="middle" x="935" y="-138.6" font-family="Times,serif" font-size="14.00">AuthAccessTokenService</text>
</g>
<!-- AuthAccessTokenService&#45;&gt;AuthJwtModule -->
<g id="edge6" class="edge">
<title>AuthAccessTokenService&#45;&gt;AuthJwtModule</title>
<path fill="none" stroke="black" d="M935,-160.83C935,-180.38 935,-208.8 935,-208.8 935,-208.8 1060.35,-208.8 1060.35,-208.8"/>
<polygon fill="black" stroke="black" points="1060.35,-212.3 1070.35,-208.8 1060.35,-205.3 1060.35,-212.3"/>
</g>
<!-- AuthJwtAccessTokenStrategy -->
<g id="node9" class="node">
<title>AuthJwtAccessTokenStrategy</title>
<ellipse fill="#fdb462" stroke="black" cx="678" cy="-142.8" rx="127.93" ry="18"/>
<text text-anchor="middle" x="678" y="-138.6" font-family="Times,serif" font-size="14.00">AuthJwtAccessTokenStrategy</text>
</g>
<!-- AuthJwtAccessTokenStrategy&#45;&gt;AuthJwtModule -->
<g id="edge7" class="edge">
<title>AuthJwtAccessTokenStrategy&#45;&gt;AuthJwtModule</title>
<path fill="none" stroke="black" d="M678,-160.84C678,-182.46 678,-215.8 678,-215.8 678,-215.8 1060.2,-215.8 1060.2,-215.8"/>
<polygon fill="black" stroke="black" points="1060.2,-219.3 1070.2,-215.8 1060.2,-212.3 1060.2,-219.3"/>
</g>
<!-- AuthJwtRefreshTokenStrategy -->
<g id="node10" class="node">
<title>AuthJwtRefreshTokenStrategy</title>
<ellipse fill="#fdb462" stroke="black" cx="401" cy="-142.8" rx="130.8" ry="18"/>
<text text-anchor="middle" x="401" y="-138.6" font-family="Times,serif" font-size="14.00">AuthJwtRefreshTokenStrategy</text>
</g>
<!-- AuthJwtRefreshTokenStrategy&#45;&gt;AuthJwtModule -->
<g id="edge8" class="edge">
<title>AuthJwtRefreshTokenStrategy&#45;&gt;AuthJwtModule</title>
<path fill="none" stroke="black" d="M401,-160.95C401,-184.56 401,-222.8 401,-222.8 401,-222.8 1060.25,-222.8 1060.25,-222.8"/>
<polygon fill="black" stroke="black" points="1060.25,-226.3 1070.25,-222.8 1060.25,-219.3 1060.25,-226.3"/>
</g>
<!-- AuthRefreshTokenService -->
<g id="node11" class="node">
<title>AuthRefreshTokenService</title>
<ellipse fill="#fdb462" stroke="black" cx="138" cy="-142.8" rx="114.02" ry="18"/>
<text text-anchor="middle" x="138" y="-138.6" font-family="Times,serif" font-size="14.00">AuthRefreshTokenService</text>
</g>
<!-- AuthRefreshTokenService&#45;&gt;AuthJwtModule -->
<g id="edge9" class="edge">
<title>AuthRefreshTokenService&#45;&gt;AuthJwtModule</title>
<path fill="none" stroke="black" d="M138,-160.83C138,-186.31 138,-229.8 138,-229.8 138,-229.8 1060.29,-229.8 1060.29,-229.8"/>
<polygon fill="black" stroke="black" points="1060.29,-233.3 1070.29,-229.8 1060.29,-226.3 1060.29,-233.3"/>
</g>
<!-- AuthService -->
<g id="node12" class="node">
<title>AuthService</title>
<ellipse fill="#fdb462" stroke="black" cx="1124" cy="-142.8" rx="59.11" ry="18"/>
<text text-anchor="middle" x="1124" y="-138.6" font-family="Times,serif" font-size="14.00">AuthService</text>
</g>
<!-- AuthService&#45;&gt;AuthJwtModule -->
<g id="edge10" class="edge">
<title>AuthService&#45;&gt;AuthJwtModule</title>
<path fill="none" stroke="black" d="M1124,-160.81C1124,-160.81 1124,-190.65 1124,-190.65"/>
<polygon fill="black" stroke="black" points="1120.5,-190.65 1124,-200.65 1127.5,-190.65 1120.5,-190.65"/>
</g>
<!-- AuthAccessTokenRepository -->
<g id="node15" class="node">
<title>AuthAccessTokenRepository</title>
<ellipse fill="#fdb462" stroke="black" cx="1656" cy="-218.8" rx="124.5" ry="18"/>
<text text-anchor="middle" x="1656" y="-214.6" font-family="Times,serif" font-size="14.00">AuthAccessTokenRepository</text>
</g>
<!-- AuthAccessTokenRepository&#45;&gt;AuthJwtRepositoryModule -->
<g id="edge13" class="edge">
<title>AuthAccessTokenRepository&#45;&gt;AuthJwtRepositoryModule</title>
<path fill="none" stroke="black" d="M1547.54,-209.8C1458.55,-209.8 1347.15,-209.8 1347.15,-209.8 1347.15,-209.8 1347.15,-171.11 1347.15,-171.11"/>
<polygon fill="black" stroke="black" points="1350.65,-171.11 1347.15,-161.11 1343.65,-171.11 1350.65,-171.11"/>
</g>
<!-- AuthRefreshTokenRepository -->
<g id="node16" class="node">
<title>AuthRefreshTokenRepository</title>
<ellipse fill="#fdb462" stroke="black" cx="1926" cy="-218.8" rx="127.37" ry="18"/>
<text text-anchor="middle" x="1926" y="-214.6" font-family="Times,serif" font-size="14.00">AuthRefreshTokenRepository</text>
</g>
<!-- AuthRefreshTokenRepository&#45;&gt;AuthJwtRepositoryModule -->
<g id="edge14" class="edge">
<title>AuthRefreshTokenRepository&#45;&gt;AuthJwtRepositoryModule</title>
<path fill="none" stroke="black" d="M1926,-200.69C1926,-190.9 1926,-180.8 1926,-180.8 1926,-180.8 1291,-180.8 1291,-180.8 1291,-180.8 1291,-170.91 1291,-170.91"/>
<polygon fill="black" stroke="black" points="1294.5,-170.91 1291,-160.91 1287.5,-170.91 1294.5,-170.91"/>
</g>
<!-- AwsRepositoryModule -->
<g id="node17" class="node">
<title>AwsRepositoryModule</title>
<polygon fill="#8dd3c7" stroke="black" points="3943.16,-160.8 3940.16,-164.8 3919.16,-164.8 3916.16,-160.8 3796.84,-160.8 3796.84,-124.8 3943.16,-124.8 3943.16,-160.8"/>
<text text-anchor="middle" x="3870" y="-138.6" font-family="Times,serif" font-size="14.00">AwsRepositoryModule</text>
</g>
<!-- AwsModule -->
<g id="node18" class="node">
<title>AwsModule</title>
<polygon fill="#8dd3c7" stroke="black" points="3942.72,-236.8 3939.72,-240.8 3918.72,-240.8 3915.72,-236.8 3857.28,-236.8 3857.28,-200.8 3942.72,-200.8 3942.72,-236.8"/>
<text text-anchor="middle" x="3900" y="-214.6" font-family="Times,serif" font-size="14.00">AwsModule</text>
</g>
<!-- AwsRepositoryModule&#45;&gt;AwsModule -->
<g id="edge15" class="edge">
<title>AwsRepositoryModule&#45;&gt;AwsModule</title>
<path fill="none" stroke="black" d="M3900,-160.81C3900,-160.81 3900,-190.65 3900,-190.65"/>
<polygon fill="black" stroke="black" points="3896.5,-190.65 3900,-200.65 3903.5,-190.65 3896.5,-190.65"/>
</g>
<!-- AwsModule&#45;&gt;CommonModule -->
<g id="edge19" class="edge">
<title>AwsModule&#45;&gt;CommonModule</title>
<path fill="none" stroke="black" d="M3891.48,-237.29C3891.48,-248.94 3891.48,-261.8 3891.48,-261.8 3891.48,-261.8 4130.63,-261.8 4130.63,-261.8 4130.63,-261.8 4130.63,-266.76 4130.63,-266.76"/>
<polygon fill="black" stroke="black" points="4127.13,-266.76 4130.63,-276.76 4134.13,-266.76 4127.13,-266.76"/>
</g>
<!-- AwsS3Service  -->
<g id="node19" class="node">
<title>AwsS3Service </title>
<polygon fill="#fb8072" stroke="black" points="3942.93,-312.8 3841.07,-312.8 3841.07,-276.8 3942.93,-276.8 3942.93,-312.8"/>
<text text-anchor="middle" x="3892" y="-290.6" font-family="Times,serif" font-size="14.00">AwsS3Service </text>
</g>
<!-- AwsModule&#45;&gt;AwsS3Service  -->
<g id="edge16" class="edge">
<title>AwsModule&#45;&gt;AwsS3Service </title>
<path fill="none" stroke="black" stroke-dasharray="5,2" d="M3874.43,-236.81C3874.43,-236.81 3874.43,-266.65 3874.43,-266.65"/>
<polygon fill="black" stroke="black" points="3870.93,-266.65 3874.43,-276.65 3877.93,-266.65 3870.93,-266.65"/>
</g>
<!-- HealthModule -->
<g id="node27" class="node">
<title>HealthModule</title>
<polygon fill="#8dd3c7" stroke="black" points="4818.37,-312.8 4815.37,-316.8 4794.37,-316.8 4791.37,-312.8 4721.63,-312.8 4721.63,-276.8 4818.37,-276.8 4818.37,-312.8"/>
<text text-anchor="middle" x="4770" y="-290.6" font-family="Times,serif" font-size="14.00">HealthModule</text>
</g>
<!-- AwsModule&#45;&gt;HealthModule -->
<g id="edge27" class="edge">
<title>AwsModule&#45;&gt;HealthModule</title>
<path fill="none" stroke="black" d="M3925.57,-237.01C3925.57,-242.35 3925.57,-246.8 3925.57,-246.8 3925.57,-246.8 4753.86,-246.8 4753.86,-246.8 4753.86,-246.8 4753.86,-266.65 4753.86,-266.65"/>
<polygon fill="black" stroke="black" points="4750.36,-266.65 4753.86,-276.65 4757.36,-266.65 4750.36,-266.65"/>
</g>
<!-- RoutesModule -->
<g id="node42" class="node">
<title>RoutesModule</title>
<polygon fill="#8dd3c7" stroke="black" points="4511.44,-380.8 4508.44,-384.8 4487.44,-384.8 4484.44,-380.8 4412.56,-380.8 4412.56,-344.8 4511.44,-344.8 4511.44,-380.8"/>
<text text-anchor="middle" x="4462" y="-358.6" font-family="Times,serif" font-size="14.00">RoutesModule</text>
</g>
<!-- AwsModule&#45;&gt;RoutesModule -->
<g id="edge40" class="edge">
<title>AwsModule&#45;&gt;RoutesModule</title>
<path fill="none" stroke="black" d="M3908.52,-236.84C3908.52,-244.55 3908.52,-251.8 3908.52,-251.8 3908.52,-251.8 4497.72,-251.8 4497.72,-251.8 4497.72,-251.8 4497.72,-334.47 4497.72,-334.47"/>
<polygon fill="black" stroke="black" points="4494.22,-334.47 4497.72,-344.47 4501.22,-334.47 4494.22,-334.47"/>
</g>
<!-- AwsS3Service -->
<g id="node20" class="node">
<title>AwsS3Service</title>
<ellipse fill="#fdb462" stroke="black" cx="3705" cy="-142.8" rx="67.8" ry="18"/>
<text text-anchor="middle" x="3705" y="-138.6" font-family="Times,serif" font-size="14.00">AwsS3Service</text>
</g>
<!-- AwsS3Service&#45;&gt;AwsModule -->
<g id="edge17" class="edge">
<title>AwsS3Service&#45;&gt;AwsModule</title>
<path fill="none" stroke="black" d="M3705,-160.81C3705,-183.29 3705,-218.8 3705,-218.8 3705,-218.8 3847.21,-218.8 3847.21,-218.8"/>
<polygon fill="black" stroke="black" points="3847.21,-222.3 3857.21,-218.8 3847.21,-215.3 3847.21,-222.3"/>
</g>
<!-- DatabaseModule -->
<g id="node21" class="node">
<title>DatabaseModule</title>
<polygon fill="#8dd3c7" stroke="black" points="4521.36,-236.8 4518.36,-240.8 4497.36,-240.8 4494.36,-236.8 4410.64,-236.8 4410.64,-200.8 4521.36,-200.8 4521.36,-236.8"/>
<text text-anchor="middle" x="4466" y="-214.6" font-family="Times,serif" font-size="14.00">DatabaseModule</text>
</g>
<!-- DatabaseModule&#45;&gt;CommonModule -->
<g id="edge20" class="edge">
<title>DatabaseModule&#45;&gt;CommonModule</title>
<path fill="none" stroke="black" d="M4437.37,-236.91C4437.37,-246.7 4437.37,-256.8 4437.37,-256.8 4437.37,-256.8 4197.23,-256.8 4197.23,-256.8 4197.23,-256.8 4197.23,-266.69 4197.23,-266.69"/>
<polygon fill="black" stroke="black" points="4193.73,-266.69 4197.23,-276.69 4200.73,-266.69 4193.73,-266.69"/>
</g>
<!-- DatabaseOptionsService  -->
<g id="node25" class="node">
<title>DatabaseOptionsService </title>
<polygon fill="#fb8072" stroke="black" points="4672.62,-312.8 4515.38,-312.8 4515.38,-276.8 4672.62,-276.8 4672.62,-312.8"/>
<text text-anchor="middle" x="4594" y="-290.6" font-family="Times,serif" font-size="14.00">DatabaseOptionsService </text>
</g>
<!-- DatabaseModule&#45;&gt;DatabaseOptionsService  -->
<g id="edge25" class="edge">
<title>DatabaseModule&#45;&gt;DatabaseOptionsService </title>
<path fill="none" stroke="black" stroke-dasharray="5,2" d="M4504.47,-236.81C4504.47,-259.29 4504.47,-294.8 4504.47,-294.8 4504.47,-294.8 4505.53,-294.8 4505.53,-294.8"/>
<polygon fill="black" stroke="black" points="4505.09,-298.3 4515.09,-294.8 4505.09,-291.3 4505.09,-298.3"/>
</g>
<!-- LoggerModule -->
<g id="node22" class="node">
<title>LoggerModule</title>
<polygon fill="#8dd3c7" stroke="black" points="4269.98,-236.8 4266.98,-240.8 4245.98,-240.8 4242.98,-236.8 4170.02,-236.8 4170.02,-200.8 4269.98,-200.8 4269.98,-236.8"/>
<text text-anchor="middle" x="4220" y="-214.6" font-family="Times,serif" font-size="14.00">LoggerModule</text>
</g>
<!-- LoggerModule&#45;&gt;CommonModule -->
<g id="edge22" class="edge">
<title>LoggerModule&#45;&gt;CommonModule</title>
<path fill="none" stroke="black" d="M4183.62,-236.81C4183.62,-236.81 4183.62,-266.65 4183.62,-266.65"/>
<polygon fill="black" stroke="black" points="4180.12,-266.65 4183.62,-276.65 4187.12,-266.65 4180.12,-266.65"/>
</g>
<!-- RequestModule -->
<g id="node23" class="node">
<title>RequestModule</title>
<polygon fill="#8dd3c7" stroke="black" points="4392.16,-236.8 4389.16,-240.8 4368.16,-240.8 4365.16,-236.8 4287.84,-236.8 4287.84,-200.8 4392.16,-200.8 4392.16,-236.8"/>
<text text-anchor="middle" x="4340" y="-214.6" font-family="Times,serif" font-size="14.00">RequestModule</text>
</g>
<!-- RequestModule&#45;&gt;CommonModule -->
<g id="edge23" class="edge">
<title>RequestModule&#45;&gt;CommonModule</title>
<path fill="none" stroke="black" d="M4287.75,-218.8C4280.8,-218.8 4276.02,-218.8 4276.02,-218.8 4276.02,-218.8 4276.02,-294.8 4276.02,-294.8 4276.02,-294.8 4220.9,-294.8 4220.9,-294.8"/>
<polygon fill="black" stroke="black" points="4220.9,-291.3 4210.9,-294.8 4220.9,-298.3 4220.9,-291.3"/>
</g>
<!-- SettingModule -->
<g id="node24" class="node">
<title>SettingModule</title>
<polygon fill="#8dd3c7" stroke="black" points="4151.72,-236.8 4148.72,-240.8 4127.72,-240.8 4124.72,-236.8 4052.28,-236.8 4052.28,-200.8 4151.72,-200.8 4151.72,-236.8"/>
<text text-anchor="middle" x="4102" y="-214.6" font-family="Times,serif" font-size="14.00">SettingModule</text>
</g>
<!-- SettingModule&#45;&gt;CommonModule -->
<g id="edge24" class="edge">
<title>SettingModule&#45;&gt;CommonModule</title>
<path fill="none" stroke="black" d="M4141.12,-236.81C4141.12,-236.81 4141.12,-266.65 4141.12,-266.65"/>
<polygon fill="black" stroke="black" points="4137.62,-266.65 4141.12,-276.65 4144.62,-266.65 4137.62,-266.65"/>
</g>
<!-- SettingService  -->
<g id="node46" class="node">
<title>SettingService </title>
<polygon fill="#fb8072" stroke="black" points="4242.65,-160.8 4141.35,-160.8 4141.35,-124.8 4242.65,-124.8 4242.65,-160.8"/>
<text text-anchor="middle" x="4192" y="-138.6" font-family="Times,serif" font-size="14.00">SettingService </text>
</g>
<!-- SettingModule&#45;&gt;SettingService  -->
<g id="edge46" class="edge">
<title>SettingModule&#45;&gt;SettingService </title>
<path fill="none" stroke="black" stroke-dasharray="5,2" d="M4144.82,-200.79C4144.82,-200.79 4144.82,-170.95 4144.82,-170.95"/>
<polygon fill="black" stroke="black" points="4148.32,-170.95 4144.82,-160.95 4141.32,-170.95 4148.32,-170.95"/>
</g>
<!-- DatabaseOptionsService -->
<g id="node26" class="node">
<title>DatabaseOptionsService</title>
<ellipse fill="#fdb462" stroke="black" cx="4385" cy="-294.8" rx="105.93" ry="18"/>
<text text-anchor="middle" x="4385" y="-290.6" font-family="Times,serif" font-size="14.00">DatabaseOptionsService</text>
</g>
<!-- DatabaseOptionsService&#45;&gt;DatabaseModule -->
<g id="edge26" class="edge">
<title>DatabaseOptionsService&#45;&gt;DatabaseModule</title>
<path fill="none" stroke="black" d="M4464.17,-282.59C4464.17,-282.59 4464.17,-246.94 4464.17,-246.94"/>
<polygon fill="black" stroke="black" points="4467.67,-246.94 4464.17,-236.94 4460.67,-246.94 4467.67,-246.94"/>
</g>
<!-- HealthAwsS3Indicator  -->
<g id="node28" class="node">
<title>HealthAwsS3Indicator </title>
<polygon fill="#fb8072" stroke="black" points="4860.8,-380.8 4713.2,-380.8 4713.2,-344.8 4860.8,-344.8 4860.8,-380.8"/>
<text text-anchor="middle" x="4787" y="-358.6" font-family="Times,serif" font-size="14.00">HealthAwsS3Indicator </text>
</g>
<!-- HealthModule&#45;&gt;HealthAwsS3Indicator  -->
<g id="edge28" class="edge">
<title>HealthModule&#45;&gt;HealthAwsS3Indicator </title>
<path fill="none" stroke="black" stroke-dasharray="5,2" d="M4770,-313.02C4770,-313.02 4770,-334.53 4770,-334.53"/>
<polygon fill="black" stroke="black" points="4766.5,-334.53 4770,-344.53 4773.5,-334.53 4766.5,-334.53"/>
</g>
<!-- HealthModule&#45;&gt;RoutesModule -->
<g id="edge41" class="edge">
<title>HealthModule&#45;&gt;RoutesModule</title>
<path fill="none" stroke="black" d="M4721.56,-294.8C4706.06,-294.8 4692.83,-294.8 4692.83,-294.8 4692.83,-294.8 4692.83,-362.8 4692.83,-362.8 4692.83,-362.8 4521.24,-362.8 4521.24,-362.8"/>
<polygon fill="black" stroke="black" points="4521.24,-359.3 4511.24,-362.8 4521.24,-366.3 4521.24,-359.3"/>
</g>
<!-- HealthAwsS3Indicator -->
<g id="node29" class="node">
<title>HealthAwsS3Indicator</title>
<ellipse fill="#fdb462" stroke="black" cx="4813" cy="-218.8" rx="99.58" ry="18"/>
<text text-anchor="middle" x="4813" y="-214.6" font-family="Times,serif" font-size="14.00">HealthAwsS3Indicator</text>
</g>
<!-- HealthAwsS3Indicator&#45;&gt;HealthModule -->
<g id="edge29" class="edge">
<title>HealthAwsS3Indicator&#45;&gt;HealthModule</title>
<path fill="none" stroke="black" d="M4786.14,-236.43C4786.14,-236.43 4786.14,-266.74 4786.14,-266.74"/>
<polygon fill="black" stroke="black" points="4782.64,-266.74 4786.14,-276.74 4789.64,-266.74 4782.64,-266.74"/>
</g>
<!-- HelperEncryptionService -->
<g id="node33" class="node">
<title>HelperEncryptionService</title>
<ellipse fill="#fdb462" stroke="black" cx="3004" cy="-218.8" rx="109.35" ry="18"/>
<text text-anchor="middle" x="3004" y="-214.6" font-family="Times,serif" font-size="14.00">HelperEncryptionService</text>
</g>
<!-- HelperEncryptionService&#45;&gt;HelperModule -->
<g id="edge33" class="edge">
<title>HelperEncryptionService&#45;&gt;HelperModule</title>
<path fill="none" stroke="black" d="M3004,-200.76C3004,-179.14 3004,-145.8 3004,-145.8 3004,-145.8 1500.89,-145.8 1500.89,-145.8"/>
<polygon fill="black" stroke="black" points="1500.89,-142.3 1490.89,-145.8 1500.89,-149.3 1500.89,-142.3"/>
</g>
<!-- HelperHashService -->
<g id="node34" class="node">
<title>HelperHashService</title>
<ellipse fill="#fdb462" stroke="black" cx="2791" cy="-218.8" rx="86.23" ry="18"/>
<text text-anchor="middle" x="2791" y="-214.6" font-family="Times,serif" font-size="14.00">HelperHashService</text>
</g>
<!-- HelperHashService&#45;&gt;HelperModule -->
<g id="edge34" class="edge">
<title>HelperHashService&#45;&gt;HelperModule</title>
<path fill="none" stroke="black" d="M2791,-200.58C2791,-180.43 2791,-150.8 2791,-150.8 2791,-150.8 1500.81,-150.8 1500.81,-150.8"/>
<polygon fill="black" stroke="black" points="1500.81,-147.3 1490.81,-150.8 1500.81,-154.3 1500.81,-147.3"/>
</g>
<!-- HelperStringService -->
<g id="node35" class="node">
<title>HelperStringService</title>
<ellipse fill="#fdb462" stroke="black" cx="2597" cy="-218.8" rx="89.75" ry="18"/>
<text text-anchor="middle" x="2597" y="-214.6" font-family="Times,serif" font-size="14.00">HelperStringService</text>
</g>
<!-- HelperStringService&#45;&gt;HelperModule -->
<g id="edge35" class="edge">
<title>HelperStringService&#45;&gt;HelperModule</title>
<path fill="none" stroke="black" d="M2597,-200.58C2597,-181.97 2597,-155.8 2597,-155.8 2597,-155.8 1500.89,-155.8 1500.89,-155.8"/>
<polygon fill="black" stroke="black" points="1500.89,-152.3 1490.89,-155.8 1500.89,-159.3 1500.89,-152.3"/>
</g>
<!-- LoggerRepositoryModule -->
<g id="node36" class="node">
<title>LoggerRepositoryModule</title>
<polygon fill="#8dd3c7" stroke="black" points="4628.92,-160.8 4625.92,-164.8 4604.92,-164.8 4601.92,-160.8 4467.08,-160.8 4467.08,-124.8 4628.92,-124.8 4628.92,-160.8"/>
<text text-anchor="middle" x="4548" y="-138.6" font-family="Times,serif" font-size="14.00">LoggerRepositoryModule</text>
</g>
<!-- LoggerRepositoryModule&#45;&gt;LoggerModule -->
<g id="edge36" class="edge">
<title>LoggerRepositoryModule&#45;&gt;LoggerModule</title>
<path fill="none" stroke="black" d="M4494.36,-160.99C4494.36,-175.98 4494.36,-194.8 4494.36,-194.8 4494.36,-194.8 4254.62,-194.8 4254.62,-194.8 4254.62,-194.8 4254.62,-195.38 4254.62,-195.38"/>
<polygon fill="black" stroke="black" points="4251.12,-190.61 4254.62,-200.61 4258.12,-190.61 4251.12,-190.61"/>
</g>
<!-- PermissionRepositoryModule -->
<g id="node37" class="node">
<title>PermissionRepositoryModule</title>
<polygon fill="#8dd3c7" stroke="black" points="5764.72,-84.8 5761.72,-88.8 5740.72,-88.8 5737.72,-84.8 5581.28,-84.8 5581.28,-48.8 5764.72,-48.8 5764.72,-84.8"/>
<text text-anchor="middle" x="5673" y="-62.6" font-family="Times,serif" font-size="14.00">PermissionRepositoryModule</text>
</g>
<!-- PermissionModule -->
<g id="node38" class="node">
<title>PermissionModule</title>
<polygon fill="#8dd3c7" stroke="black" points="5733.78,-160.8 5730.78,-164.8 5709.78,-164.8 5706.78,-160.8 5612.22,-160.8 5612.22,-124.8 5733.78,-124.8 5733.78,-160.8"/>
<text text-anchor="middle" x="5673" y="-138.6" font-family="Times,serif" font-size="14.00">PermissionModule</text>
</g>
<!-- PermissionRepositoryModule&#45;&gt;PermissionModule -->
<g id="edge37" class="edge">
<title>PermissionRepositoryModule&#45;&gt;PermissionModule</title>
<path fill="none" stroke="black" d="M5673,-84.81C5673,-84.81 5673,-114.65 5673,-114.65"/>
<polygon fill="black" stroke="black" points="5669.5,-114.65 5673,-124.65 5676.5,-114.65 5669.5,-114.65"/>
</g>
<!-- RoutesAdminModule -->
<g id="node41" class="node">
<title>RoutesAdminModule</title>
<polygon fill="#8dd3c7" stroke="black" points="5741.83,-236.8 5738.83,-240.8 5717.83,-240.8 5714.83,-236.8 5604.17,-236.8 5604.17,-200.8 5741.83,-200.8 5741.83,-236.8"/>
<text text-anchor="middle" x="5673" y="-214.6" font-family="Times,serif" font-size="14.00">RoutesAdminModule</text>
</g>
<!-- PermissionModule&#45;&gt;RoutesAdminModule -->
<g id="edge39" class="edge">
<title>PermissionModule&#45;&gt;RoutesAdminModule</title>
<path fill="none" stroke="black" d="M5673,-160.81C5673,-160.81 5673,-190.65 5673,-190.65"/>
<polygon fill="black" stroke="black" points="5669.5,-190.65 5673,-200.65 5676.5,-190.65 5669.5,-190.65"/>
</g>
<!-- RoleRepositoryModule -->
<g id="node39" class="node">
<title>RoleRepositoryModule</title>
<polygon fill="#8dd3c7" stroke="black" points="5100.94,-160.8 5097.94,-164.8 5076.94,-164.8 5073.94,-160.8 4953.06,-160.8 4953.06,-124.8 5100.94,-124.8 5100.94,-160.8"/>
<text text-anchor="middle" x="5027" y="-138.6" font-family="Times,serif" font-size="14.00">RoleRepositoryModule</text>
</g>
<!-- RoleModule -->
<g id="node40" class="node">
<title>RoleModule</title>
<polygon fill="#8dd3c7" stroke="black" points="5088.99,-236.8 5085.99,-240.8 5064.99,-240.8 5061.99,-236.8 5003.01,-236.8 5003.01,-200.8 5088.99,-200.8 5088.99,-236.8"/>
<text text-anchor="middle" x="5046" y="-214.6" font-family="Times,serif" font-size="14.00">RoleModule</text>
</g>
<!-- RoleRepositoryModule&#45;&gt;RoleModule -->
<g id="edge38" class="edge">
<title>RoleRepositoryModule&#45;&gt;RoleModule</title>
<path fill="none" stroke="black" d="M5046,-160.81C5046,-160.81 5046,-190.65 5046,-190.65"/>
<polygon fill="black" stroke="black" points="5042.5,-190.65 5046,-200.65 5049.5,-190.65 5042.5,-190.65"/>
</g>
<!-- RoleModule&#45;&gt;RoutesPublicModule -->
<g id="edge43" class="edge">
<title>RoleModule&#45;&gt;RoutesPublicModule</title>
<path fill="none" stroke="black" d="M5089.1,-218.8C5113.09,-218.8 5138.15,-218.8 5138.15,-218.8 5138.15,-218.8 5138.15,-266.79 5138.15,-266.79"/>
<polygon fill="black" stroke="black" points="5134.65,-266.79 5138.15,-276.79 5141.65,-266.79 5134.65,-266.79"/>
</g>
<!-- UserModule -->
<g id="node43" class="node">
<title>UserModule</title>
<polygon fill="#8dd3c7" stroke="black" points="5250.99,-236.8 5247.99,-240.8 5226.99,-240.8 5223.99,-236.8 5165.01,-236.8 5165.01,-200.8 5250.99,-200.8 5250.99,-236.8"/>
<text text-anchor="middle" x="5208" y="-214.6" font-family="Times,serif" font-size="14.00">UserModule</text>
</g>
<!-- UserModule&#45;&gt;RoutesPublicModule -->
<g id="edge44" class="edge">
<title>UserModule&#45;&gt;RoutesPublicModule</title>
<path fill="none" stroke="black" d="M5208,-236.81C5208,-236.81 5208,-266.65 5208,-266.65"/>
<polygon fill="black" stroke="black" points="5204.5,-266.65 5208,-276.65 5211.5,-266.65 5204.5,-266.65"/>
</g>
<!-- UserService  -->
<g id="node49" class="node">
<title>UserService </title>
<polygon fill="#fb8072" stroke="black" points="5368.91,-160.8 5281.09,-160.8 5281.09,-124.8 5368.91,-124.8 5368.91,-160.8"/>
<text text-anchor="middle" x="5325" y="-138.6" font-family="Times,serif" font-size="14.00">UserService </text>
</g>
<!-- UserModule&#45;&gt;UserService  -->
<g id="edge49" class="edge">
<title>UserModule&#45;&gt;UserService </title>
<path fill="none" stroke="black" stroke-dasharray="5,2" d="M5251.23,-212.8C5284.56,-212.8 5325,-212.8 5325,-212.8 5325,-212.8 5325,-170.83 5325,-170.83"/>
<polygon fill="black" stroke="black" points="5328.5,-170.83 5325,-160.83 5321.5,-170.83 5328.5,-170.83"/>
</g>
<!-- SettingRepositoryModule -->
<g id="node45" class="node">
<title>SettingRepositoryModule</title>
<polygon fill="#8dd3c7" stroke="black" points="4427.16,-160.8 4424.16,-164.8 4403.16,-164.8 4400.16,-160.8 4266.84,-160.8 4266.84,-124.8 4427.16,-124.8 4427.16,-160.8"/>
<text text-anchor="middle" x="4347" y="-138.6" font-family="Times,serif" font-size="14.00">SettingRepositoryModule</text>
</g>
<!-- SettingRepositoryModule&#45;&gt;SettingModule -->
<g id="edge45" class="edge">
<title>SettingRepositoryModule&#45;&gt;SettingModule</title>
<path fill="none" stroke="black" d="M4273,-160.84C4273,-173.36 4273,-187.8 4273,-187.8 4273,-187.8 4148.22,-187.8 4148.22,-187.8 4148.22,-187.8 4148.22,-190.77 4148.22,-190.77"/>
<polygon fill="black" stroke="black" points="4144.72,-190.77 4148.22,-200.77 4151.72,-190.77 4144.72,-190.77"/>
</g>
<!-- SettingService -->
<g id="node47" class="node">
<title>SettingService</title>
<ellipse fill="#fdb462" stroke="black" cx="4050" cy="-142.8" rx="67.21" ry="18"/>
<text text-anchor="middle" x="4050" y="-138.6" font-family="Times,serif" font-size="14.00">SettingService</text>
</g>
<!-- SettingService&#45;&gt;SettingModule -->
<g id="edge47" class="edge">
<title>SettingService&#45;&gt;SettingModule</title>
<path fill="none" stroke="black" d="M4084.87,-158.55C4084.87,-158.55 4084.87,-190.67 4084.87,-190.67"/>
<polygon fill="black" stroke="black" points="4081.37,-190.67 4084.87,-200.67 4088.37,-190.67 4081.37,-190.67"/>
</g>
<!-- UserRepositoryModule -->
<g id="node48" class="node">
<title>UserRepositoryModule</title>
<polygon fill="#8dd3c7" stroke="black" points="5540.93,-160.8 5537.93,-164.8 5516.93,-164.8 5513.93,-160.8 5393.07,-160.8 5393.07,-124.8 5540.93,-124.8 5540.93,-160.8"/>
<text text-anchor="middle" x="5467" y="-138.6" font-family="Times,serif" font-size="14.00">UserRepositoryModule</text>
</g>
<!-- UserRepositoryModule&#45;&gt;UserModule -->
<g id="edge48" class="edge">
<title>UserRepositoryModule&#45;&gt;UserModule</title>
<path fill="none" stroke="black" d="M5467,-161C5467,-185.16 5467,-224.8 5467,-224.8 5467,-224.8 5261.06,-224.8 5261.06,-224.8"/>
<polygon fill="black" stroke="black" points="5261.06,-221.3 5251.06,-224.8 5261.06,-228.3 5261.06,-221.3"/>
</g>
<!-- UserRepository  -->
<g id="node51" class="node">
<title>UserRepository </title>
<polygon fill="#fb8072" stroke="black" points="5530.88,-84.8 5423.12,-84.8 5423.12,-48.8 5530.88,-48.8 5530.88,-84.8"/>
<text text-anchor="middle" x="5477" y="-62.6" font-family="Times,serif" font-size="14.00">UserRepository </text>
</g>
<!-- UserRepositoryModule&#45;&gt;UserRepository  -->
<g id="edge51" class="edge">
<title>UserRepositoryModule&#45;&gt;UserRepository </title>
<path fill="none" stroke="black" stroke-dasharray="5,2" d="M5477,-124.79C5477,-124.79 5477,-94.95 5477,-94.95"/>
<polygon fill="black" stroke="black" points="5480.5,-94.95 5477,-84.95 5473.5,-94.95 5480.5,-94.95"/>
</g>
<!-- UserService -->
<g id="node50" class="node">
<title>UserService</title>
<ellipse fill="#fdb462" stroke="black" cx="5199" cy="-142.8" rx="58.46" ry="18"/>
<text text-anchor="middle" x="5199" y="-138.6" font-family="Times,serif" font-size="14.00">UserService</text>
</g>
<!-- UserService&#45;&gt;UserModule -->
<g id="edge50" class="edge">
<title>UserService&#45;&gt;UserModule</title>
<path fill="none" stroke="black" d="M5208,-160.81C5208,-160.81 5208,-190.65 5208,-190.65"/>
<polygon fill="black" stroke="black" points="5204.5,-190.65 5208,-200.65 5211.5,-190.65 5204.5,-190.65"/>
</g>
<!-- UserRepository -->
<g id="node52" class="node">
<title>UserRepository</title>
<ellipse fill="#fdb462" stroke="black" cx="5327" cy="-66.8" rx="71.8" ry="18"/>
<text text-anchor="middle" x="5327" y="-62.6" font-family="Times,serif" font-size="14.00">UserRepository</text>
</g>
<!-- UserRepository&#45;&gt;UserRepositoryModule -->
<g id="edge52" class="edge">
<title>UserRepository&#45;&gt;UserRepositoryModule</title>
<path fill="none" stroke="black" d="M5381.12,-78.68C5381.12,-100.05 5381.12,-142.8 5381.12,-142.8 5381.12,-142.8 5383.06,-142.8 5383.06,-142.8"/>
<polygon fill="black" stroke="black" points="5383.06,-146.3 5393.06,-142.8 5383.06,-139.3 5383.06,-146.3"/>
</g>
</g>
</svg>
