<?xml version="1.0" encoding="UTF-8" standalone="no"?>
<!DOCTYPE svg PUBLIC "-//W3C//DTD SVG 1.1//EN"
 "http://www.w3.org/Graphics/SVG/1.1/DTD/svg11.dtd">
<!-- Generated by graphviz version 5.0.0 (20220707.1540)
 -->
<!-- Title: dependencies Pages: 1 -->
<svg width="256pt" height="174pt"
 viewBox="0.00 0.00 256.00 173.80" xmlns="http://www.w3.org/2000/svg" xmlns:xlink="http://www.w3.org/1999/xlink">
<g id="graph0" class="graph" transform="scale(1 1) rotate(0) translate(4 169.8)">
<title>dependencies</title>
<polygon fill="white" stroke="transparent" points="-4,4 -4,-169.8 252,-169.8 252,4 -4,4"/>
<text text-anchor="middle" x="124" y="-8.2" font-family="sans-serif" font-size="14.00">dependencies</text>
<g id="clust1" class="cluster">
<title>cluster_RoutesModule</title>
<polygon fill="none" stroke="black" stroke-dasharray="1,5" points="8,-32.8 8,-157.8 240,-157.8 240,-32.8 8,-32.8"/>
</g>
<g id="clust3" class="cluster">
<title>cluster_RoutesModule_imports</title>
<polygon fill="none" stroke="black" points="16,-40.8 16,-92.8 232,-92.8 232,-40.8 16,-40.8"/>
</g>
<!-- AwsModule -->
<g id="node1" class="node">
<title>AwsModule</title>
<polygon fill="#8dd3c7" stroke="black" points="223.72,-84.8 220.72,-88.8 199.72,-88.8 196.72,-84.8 138.28,-84.8 138.28,-48.8 223.72,-48.8 223.72,-84.8"/>
<text text-anchor="middle" x="181" y="-62.6" font-family="Times,serif" font-size="14.00">AwsModule</text>
</g>
<!-- RoutesModule -->
<g id="node3" class="node">
<title>RoutesModule</title>
<polygon fill="#8dd3c7" stroke="black" points="175.44,-149.8 172.44,-153.8 151.44,-153.8 148.44,-149.8 76.56,-149.8 76.56,-113.8 175.44,-113.8 175.44,-149.8"/>
<text text-anchor="middle" x="126" y="-127.6" font-family="Times,serif" font-size="14.00">RoutesModule</text>
</g>
<!-- AwsModule&#45;&gt;RoutesModule -->
<g id="edge1" class="edge">
<title>AwsModule&#45;&gt;RoutesModule</title>
<path fill="none" stroke="black" d="M156.81,-84.91C156.81,-84.91 156.81,-103.79 156.81,-103.79"/>
<polygon fill="black" stroke="black" points="153.31,-103.79 156.81,-113.79 160.31,-103.79 153.31,-103.79"/>
</g>
<!-- HealthModule -->
<g id="node2" class="node">
<title>HealthModule</title>
<polygon fill="#8dd3c7" stroke="black" points="120.37,-84.8 117.37,-88.8 96.37,-88.8 93.37,-84.8 23.63,-84.8 23.63,-48.8 120.37,-48.8 120.37,-84.8"/>
<text text-anchor="middle" x="72" y="-62.6" font-family="Times,serif" font-size="14.00">HealthModule</text>
</g>
<!-- HealthModule&#45;&gt;RoutesModule -->
<g id="edge2" class="edge">
<title>HealthModule&#45;&gt;RoutesModule</title>
<path fill="none" stroke="black" d="M98.61,-84.91C98.61,-84.91 98.61,-103.79 98.61,-103.79"/>
<polygon fill="black" stroke="black" points="95.11,-103.79 98.61,-113.79 102.11,-103.79 95.11,-103.79"/>
</g>
</g>
</svg>
