<?xml version="1.0" encoding="UTF-8" standalone="no"?>
<!DOCTYPE svg PUBLIC "-//W3C//DTD SVG 1.1//EN"
 "http://www.w3.org/Graphics/SVG/1.1/DTD/svg11.dtd">
<!-- Generated by graphviz version 5.0.0 (20220707.1540)
 -->
<!-- Title: dependencies Pages: 1 -->
<svg width="578pt" height="247pt"
 viewBox="0.00 0.00 578.00 246.80" xmlns="http://www.w3.org/2000/svg" xmlns:xlink="http://www.w3.org/1999/xlink">
<g id="graph0" class="graph" transform="scale(1 1) rotate(0) translate(4 242.8)">
<title>dependencies</title>
<polygon fill="white" stroke="transparent" points="-4,4 -4,-242.8 574,-242.8 574,4 -4,4"/>
<text text-anchor="middle" x="285" y="-8.2" font-family="sans-serif" font-size="14.00">dependencies</text>
<g id="clust1" class="cluster">
<title>cluster_AuthJwtRepositoryModule</title>
<polygon fill="none" stroke="black" stroke-dasharray="1,5" points="8,-32.8 8,-230.8 562,-230.8 562,-32.8 8,-32.8"/>
</g>
<g id="clust4" class="cluster">
<title>cluster_AuthJwtRepositoryModule_exports</title>
<polygon fill="none" stroke="black" points="57,-170.8 57,-222.8 463,-222.8 463,-170.8 57,-170.8"/>
</g>
<g id="clust6" class="cluster">
<title>cluster_AuthJwtRepositoryModule_providers</title>
<polygon fill="none" stroke="black" points="16,-40.8 16,-92.8 554,-92.8 554,-40.8 16,-40.8"/>
</g>
<!-- AuthAccessTokenRepository  -->
<g id="node1" class="node">
<title>AuthAccessTokenRepository </title>
<polygon fill="#fb8072" stroke="black" points="455.36,-214.8 270.64,-214.8 270.64,-178.8 455.36,-178.8 455.36,-214.8"/>
<text text-anchor="middle" x="363" y="-192.6" font-family="Times,serif" font-size="14.00">AuthAccessTokenRepository </text>
</g>
<!-- AuthRefreshTokenRepository  -->
<g id="node2" class="node">
<title>AuthRefreshTokenRepository </title>
<polygon fill="#fb8072" stroke="black" points="253.25,-214.8 64.75,-214.8 64.75,-178.8 253.25,-178.8 253.25,-214.8"/>
<text text-anchor="middle" x="159" y="-192.6" font-family="Times,serif" font-size="14.00">AuthRefreshTokenRepository </text>
</g>
<!-- AuthJwtRepositoryModule -->
<g id="node3" class="node">
<title>AuthJwtRepositoryModule</title>
<polygon fill="#8dd3c7" stroke="black" points="284.44,-149.8 281.44,-153.8 260.44,-153.8 257.44,-149.8 115.56,-149.8 115.56,-113.8 284.44,-113.8 284.44,-149.8"/>
<text text-anchor="middle" x="200" y="-127.6" font-family="Times,serif" font-size="14.00">AuthJwtRepositoryModule</text>
</g>
<!-- AuthJwtRepositoryModule&#45;&gt;AuthAccessTokenRepository  -->
<g id="edge1" class="edge">
<title>AuthJwtRepositoryModule&#45;&gt;AuthAccessTokenRepository </title>
<path fill="none" stroke="black" stroke-dasharray="5,2" d="M277.52,-149.91C277.52,-149.91 277.52,-168.79 277.52,-168.79"/>
<polygon fill="black" stroke="black" points="274.02,-168.79 277.52,-178.79 281.02,-168.79 274.02,-168.79"/>
</g>
<!-- AuthJwtRepositoryModule&#45;&gt;AuthRefreshTokenRepository  -->
<g id="edge2" class="edge">
<title>AuthJwtRepositoryModule&#45;&gt;AuthRefreshTokenRepository </title>
<path fill="none" stroke="black" stroke-dasharray="5,2" d="M184.45,-149.91C184.45,-149.91 184.45,-168.79 184.45,-168.79"/>
<polygon fill="black" stroke="black" points="180.95,-168.79 184.45,-178.79 187.95,-168.79 180.95,-168.79"/>
</g>
<!-- AuthAccessTokenRepository -->
<g id="node4" class="node">
<title>AuthAccessTokenRepository</title>
<ellipse fill="#fdb462" stroke="black" cx="421" cy="-66.8" rx="124.5" ry="18"/>
<text text-anchor="middle" x="421" y="-62.6" font-family="Times,serif" font-size="14.00">AuthAccessTokenRepository</text>
</g>
<!-- AuthAccessTokenRepository&#45;&gt;AuthJwtRepositoryModule -->
<g id="edge3" class="edge">
<title>AuthAccessTokenRepository&#45;&gt;AuthJwtRepositoryModule</title>
<path fill="none" stroke="black" d="M375.71,-83.88C375.71,-103.14 375.71,-131.8 375.71,-131.8 375.71,-131.8 294.25,-131.8 294.25,-131.8"/>
<polygon fill="black" stroke="black" points="294.25,-128.3 284.25,-131.8 294.25,-135.3 294.25,-128.3"/>
</g>
<!-- AuthRefreshTokenRepository -->
<g id="node5" class="node">
<title>AuthRefreshTokenRepository</title>
<ellipse fill="#fdb462" stroke="black" cx="151" cy="-66.8" rx="127.37" ry="18"/>
<text text-anchor="middle" x="151" y="-62.6" font-family="Times,serif" font-size="14.00">AuthRefreshTokenRepository</text>
</g>
<!-- AuthRefreshTokenRepository&#45;&gt;AuthJwtRepositoryModule -->
<g id="edge4" class="edge">
<title>AuthRefreshTokenRepository&#45;&gt;AuthJwtRepositoryModule</title>
<path fill="none" stroke="black" d="M197.11,-83.88C197.11,-83.88 197.11,-103.7 197.11,-103.7"/>
<polygon fill="black" stroke="black" points="193.61,-103.7 197.11,-113.7 200.61,-103.7 193.61,-103.7"/>
</g>
</g>
</svg>
