<?xml version="1.0" encoding="UTF-8" standalone="no"?>
<!DOCTYPE svg PUBLIC "-//W3C//DTD SVG 1.1//EN"
 "http://www.w3.org/Graphics/SVG/1.1/DTD/svg11.dtd">
<!-- Generated by graphviz version 5.0.0 (20220707.1540)
 -->
<!-- Title: dependencies Pages: 1 -->
<svg width="366pt" height="247pt"
 viewBox="0.00 0.00 366.00 246.80" xmlns="http://www.w3.org/2000/svg" xmlns:xlink="http://www.w3.org/1999/xlink">
<g id="graph0" class="graph" transform="scale(1 1) rotate(0) translate(4 242.8)">
<title>dependencies</title>
<polygon fill="white" stroke="transparent" points="-4,4 -4,-242.8 362,-242.8 362,4 -4,4"/>
<text text-anchor="middle" x="179" y="-8.2" font-family="sans-serif" font-size="14.00">dependencies</text>
<g id="clust1" class="cluster">
<title>cluster_HealthModule</title>
<polygon fill="none" stroke="black" stroke-dasharray="1,5" points="8,-32.8 8,-230.8 350,-230.8 350,-32.8 8,-32.8"/>
</g>
<g id="clust6" class="cluster">
<title>cluster_HealthModule_providers</title>
<polygon fill="none" stroke="black" points="126,-40.8 126,-92.8 342,-92.8 342,-40.8 126,-40.8"/>
</g>
<g id="clust3" class="cluster">
<title>cluster_HealthModule_imports</title>
<polygon fill="none" stroke="black" points="16,-40.8 16,-92.8 118,-92.8 118,-40.8 16,-40.8"/>
</g>
<g id="clust4" class="cluster">
<title>cluster_HealthModule_exports</title>
<polygon fill="none" stroke="black" points="84,-170.8 84,-222.8 248,-222.8 248,-170.8 84,-170.8"/>
</g>
<!-- AwsModule -->
<g id="node1" class="node">
<title>AwsModule</title>
<polygon fill="#8dd3c7" stroke="black" points="109.72,-84.8 106.72,-88.8 85.72,-88.8 82.72,-84.8 24.28,-84.8 24.28,-48.8 109.72,-48.8 109.72,-84.8"/>
<text text-anchor="middle" x="67" y="-62.6" font-family="Times,serif" font-size="14.00">AwsModule</text>
</g>
<!-- HealthModule -->
<g id="node2" class="node">
<title>HealthModule</title>
<polygon fill="#8dd3c7" stroke="black" points="214.37,-149.8 211.37,-153.8 190.37,-153.8 187.37,-149.8 117.63,-149.8 117.63,-113.8 214.37,-113.8 214.37,-149.8"/>
<text text-anchor="middle" x="166" y="-127.6" font-family="Times,serif" font-size="14.00">HealthModule</text>
</g>
<!-- AwsModule&#45;&gt;HealthModule -->
<g id="edge1" class="edge">
<title>AwsModule&#45;&gt;HealthModule</title>
<path fill="none" stroke="black" d="M100.85,-84.91C100.85,-104.14 100.85,-131.8 100.85,-131.8 100.85,-131.8 107.29,-131.8 107.29,-131.8"/>
<polygon fill="black" stroke="black" points="107.29,-135.3 117.29,-131.8 107.29,-128.3 107.29,-135.3"/>
</g>
<!-- HealthAwsS3Indicator  -->
<g id="node3" class="node">
<title>HealthAwsS3Indicator </title>
<polygon fill="#fb8072" stroke="black" points="239.8,-214.8 92.2,-214.8 92.2,-178.8 239.8,-178.8 239.8,-214.8"/>
<text text-anchor="middle" x="166" y="-192.6" font-family="Times,serif" font-size="14.00">HealthAwsS3Indicator </text>
</g>
<!-- HealthModule&#45;&gt;HealthAwsS3Indicator  -->
<g id="edge2" class="edge">
<title>HealthModule&#45;&gt;HealthAwsS3Indicator </title>
<path fill="none" stroke="black" stroke-dasharray="5,2" d="M166,-149.91C166,-149.91 166,-168.79 166,-168.79"/>
<polygon fill="black" stroke="black" points="162.5,-168.79 166,-178.79 169.5,-168.79 162.5,-168.79"/>
</g>
<!-- HealthAwsS3Indicator -->
<g id="node4" class="node">
<title>HealthAwsS3Indicator</title>
<ellipse fill="#fdb462" stroke="black" cx="234" cy="-66.8" rx="99.58" ry="18"/>
<text text-anchor="middle" x="234" y="-62.6" font-family="Times,serif" font-size="14.00">HealthAwsS3Indicator</text>
</g>
<!-- HealthAwsS3Indicator&#45;&gt;HealthModule -->
<g id="edge3" class="edge">
<title>HealthAwsS3Indicator&#45;&gt;HealthModule</title>
<path fill="none" stroke="black" d="M174.45,-81.23C174.45,-81.23 174.45,-103.69 174.45,-103.69"/>
<polygon fill="black" stroke="black" points="170.95,-103.69 174.45,-113.69 177.95,-103.69 170.95,-103.69"/>
</g>
</g>
</svg>
