<?xml version="1.0" encoding="UTF-8" standalone="no"?>
<!DOCTYPE svg PUBLIC "-//W3C//DTD SVG 1.1//EN"
 "http://www.w3.org/Graphics/SVG/1.1/DTD/svg11.dtd">
<!-- Generated by graphviz version 5.0.0 (20220707.1540)
 -->
<!-- Title: dependencies Pages: 1 -->
<svg width="374pt" height="247pt"
 viewBox="0.00 0.00 374.00 246.80" xmlns="http://www.w3.org/2000/svg" xmlns:xlink="http://www.w3.org/1999/xlink">
<g id="graph0" class="graph" transform="scale(1 1) rotate(0) translate(4 242.8)">
<title>dependencies</title>
<polygon fill="white" stroke="transparent" points="-4,4 -4,-242.8 370,-242.8 370,4 -4,4"/>
<text text-anchor="middle" x="183" y="-8.2" font-family="sans-serif" font-size="14.00">dependencies</text>
<g id="clust1" class="cluster">
<title>cluster_SettingModule</title>
<polygon fill="none" stroke="black" stroke-dasharray="1,5" points="8,-32.8 8,-230.8 358,-230.8 358,-32.8 8,-32.8"/>
</g>
<g id="clust3" class="cluster">
<title>cluster_SettingModule_imports</title>
<polygon fill="none" stroke="black" points="174,-40.8 174,-92.8 350,-92.8 350,-40.8 174,-40.8"/>
</g>
<g id="clust4" class="cluster">
<title>cluster_SettingModule_exports</title>
<polygon fill="none" stroke="black" points="117,-170.8 117,-222.8 235,-222.8 235,-170.8 117,-170.8"/>
</g>
<g id="clust6" class="cluster">
<title>cluster_SettingModule_providers</title>
<polygon fill="none" stroke="black" points="16,-40.8 16,-92.8 166,-92.8 166,-40.8 16,-40.8"/>
</g>
<!-- SettingRepositoryModule -->
<g id="node1" class="node">
<title>SettingRepositoryModule</title>
<polygon fill="#8dd3c7" stroke="black" points="342.16,-84.8 339.16,-88.8 318.16,-88.8 315.16,-84.8 181.84,-84.8 181.84,-48.8 342.16,-48.8 342.16,-84.8"/>
<text text-anchor="middle" x="262" y="-62.6" font-family="Times,serif" font-size="14.00">SettingRepositoryModule</text>
</g>
<!-- SettingModule -->
<g id="node2" class="node">
<title>SettingModule</title>
<polygon fill="#8dd3c7" stroke="black" points="225.72,-149.8 222.72,-153.8 201.72,-153.8 198.72,-149.8 126.28,-149.8 126.28,-113.8 225.72,-113.8 225.72,-149.8"/>
<text text-anchor="middle" x="176" y="-127.6" font-family="Times,serif" font-size="14.00">SettingModule</text>
</g>
<!-- SettingRepositoryModule&#45;&gt;SettingModule -->
<g id="edge1" class="edge">
<title>SettingRepositoryModule&#45;&gt;SettingModule</title>
<path fill="none" stroke="black" d="M203.64,-84.91C203.64,-84.91 203.64,-103.79 203.64,-103.79"/>
<polygon fill="black" stroke="black" points="200.14,-103.79 203.64,-113.79 207.14,-103.79 200.14,-103.79"/>
</g>
<!-- SettingService  -->
<g id="node3" class="node">
<title>SettingService </title>
<polygon fill="#fb8072" stroke="black" points="226.65,-214.8 125.35,-214.8 125.35,-178.8 226.65,-178.8 226.65,-214.8"/>
<text text-anchor="middle" x="176" y="-192.6" font-family="Times,serif" font-size="14.00">SettingService </text>
</g>
<!-- SettingModule&#45;&gt;SettingService  -->
<g id="edge2" class="edge">
<title>SettingModule&#45;&gt;SettingService </title>
<path fill="none" stroke="black" stroke-dasharray="5,2" d="M176,-149.91C176,-149.91 176,-168.79 176,-168.79"/>
<polygon fill="black" stroke="black" points="172.5,-168.79 176,-178.79 179.5,-168.79 172.5,-168.79"/>
</g>
<!-- SettingService -->
<g id="node4" class="node">
<title>SettingService</title>
<ellipse fill="#fdb462" stroke="black" cx="91" cy="-66.8" rx="67.21" ry="18"/>
<text text-anchor="middle" x="91" y="-62.6" font-family="Times,serif" font-size="14.00">SettingService</text>
</g>
<!-- SettingService&#45;&gt;SettingModule -->
<g id="edge3" class="edge">
<title>SettingService&#45;&gt;SettingModule</title>
<path fill="none" stroke="black" d="M142.37,-78.72C142.37,-78.72 142.37,-103.57 142.37,-103.57"/>
<polygon fill="black" stroke="black" points="138.87,-103.57 142.37,-113.57 145.87,-103.57 138.87,-103.57"/>
</g>
</g>
</svg>
