<?xml version="1.0" encoding="UTF-8" standalone="no"?>
<!DOCTYPE svg PUBLIC "-//W3C//DTD SVG 1.1//EN"
 "http://www.w3.org/Graphics/SVG/1.1/DTD/svg11.dtd">
<!-- Generated by graphviz version 5.0.0 (20220707.1540)
 -->
<!-- Title: dependencies Pages: 1 -->
<svg width="869pt" height="174pt"
 viewBox="0.00 0.00 869.00 173.80" xmlns="http://www.w3.org/2000/svg" xmlns:xlink="http://www.w3.org/1999/xlink">
<g id="graph0" class="graph" transform="scale(1 1) rotate(0) translate(4 169.8)">
<title>dependencies</title>
<polygon fill="white" stroke="transparent" points="-4,4 -4,-169.8 865,-169.8 865,4 -4,4"/>
<text text-anchor="middle" x="430.5" y="-8.2" font-family="sans-serif" font-size="14.00">dependencies</text>
<g id="clust1" class="cluster">
<title>cluster_CommonModule</title>
<polygon fill="none" stroke="black" stroke-dasharray="1,5" points="8,-32.8 8,-157.8 853,-157.8 853,-32.8 8,-32.8"/>
</g>
<g id="clust3" class="cluster">
<title>cluster_CommonModule_imports</title>
<polygon fill="none" stroke="black" points="16,-40.8 16,-92.8 845,-92.8 845,-40.8 16,-40.8"/>
</g>
<!-- AuthJwtModule -->
<g id="node1" class="node">
<title>AuthJwtModule</title>
<polygon fill="#8dd3c7" stroke="black" points="836.5,-84.8 833.5,-88.8 812.5,-88.8 809.5,-84.8 729.5,-84.8 729.5,-48.8 836.5,-48.8 836.5,-84.8"/>
<text text-anchor="middle" x="783" y="-62.6" font-family="Times,serif" font-size="14.00">AuthJwtModule</text>
</g>
<!-- CommonModule -->
<g id="node8" class="node">
<title>CommonModule</title>
<polygon fill="#8dd3c7" stroke="black" points="486.67,-149.8 483.67,-153.8 462.67,-153.8 459.67,-149.8 375.33,-149.8 375.33,-113.8 486.67,-113.8 486.67,-149.8"/>
<text text-anchor="middle" x="431" y="-127.6" font-family="Times,serif" font-size="14.00">CommonModule</text>
</g>
<!-- AuthJwtModule&#45;&gt;CommonModule -->
<g id="edge1" class="edge">
<title>AuthJwtModule&#45;&gt;CommonModule</title>
<path fill="none" stroke="black" d="M783,-85.08C783,-106.12 783,-137.8 783,-137.8 783,-137.8 496.78,-137.8 496.78,-137.8"/>
<polygon fill="black" stroke="black" points="496.78,-134.3 486.78,-137.8 496.78,-141.3 496.78,-134.3"/>
</g>
<!-- AwsModule -->
<g id="node2" class="node">
<title>AwsModule</title>
<polygon fill="#8dd3c7" stroke="black" points="711.72,-84.8 708.72,-88.8 687.72,-88.8 684.72,-84.8 626.28,-84.8 626.28,-48.8 711.72,-48.8 711.72,-84.8"/>
<text text-anchor="middle" x="669" y="-62.6" font-family="Times,serif" font-size="14.00">AwsModule</text>
</g>
<!-- AwsModule&#45;&gt;CommonModule -->
<g id="edge2" class="edge">
<title>AwsModule&#45;&gt;CommonModule</title>
<path fill="none" stroke="black" d="M669,-84.82C669,-102.17 669,-125.8 669,-125.8 669,-125.8 496.8,-125.8 496.8,-125.8"/>
<polygon fill="black" stroke="black" points="496.8,-122.3 486.8,-125.8 496.8,-129.3 496.8,-122.3"/>
</g>
<!-- DatabaseModule -->
<g id="node3" class="node">
<title>DatabaseModule</title>
<polygon fill="#8dd3c7" stroke="black" points="608.36,-84.8 605.36,-88.8 584.36,-88.8 581.36,-84.8 497.64,-84.8 497.64,-48.8 608.36,-48.8 608.36,-84.8"/>
<text text-anchor="middle" x="553" y="-62.6" font-family="Times,serif" font-size="14.00">DatabaseModule</text>
</g>
<!-- DatabaseModule&#45;&gt;CommonModule -->
<g id="edge3" class="edge">
<title>DatabaseModule&#45;&gt;CommonModule</title>
<path fill="none" stroke="black" d="M497.43,-66.8C489.15,-66.8 483.33,-66.8 483.33,-66.8 483.33,-66.8 483.33,-103.69 483.33,-103.69"/>
<polygon fill="black" stroke="black" points="479.83,-103.69 483.33,-113.69 486.83,-103.69 479.83,-103.69"/>
</g>
<!-- HelperModule -->
<g id="node4" class="node">
<title>HelperModule</title>
<polygon fill="#8dd3c7" stroke="black" points="479.64,-84.8 476.64,-88.8 455.64,-88.8 452.64,-84.8 382.36,-84.8 382.36,-48.8 479.64,-48.8 479.64,-84.8"/>
<text text-anchor="middle" x="431" y="-62.6" font-family="Times,serif" font-size="14.00">HelperModule</text>
</g>
<!-- HelperModule&#45;&gt;CommonModule -->
<g id="edge4" class="edge">
<title>HelperModule&#45;&gt;CommonModule</title>
<path fill="none" stroke="black" d="M431,-84.91C431,-84.91 431,-103.79 431,-103.79"/>
<polygon fill="black" stroke="black" points="427.5,-103.79 431,-113.79 434.5,-103.79 427.5,-103.79"/>
</g>
<!-- LoggerModule -->
<g id="node5" class="node">
<title>LoggerModule</title>
<polygon fill="#8dd3c7" stroke="black" points="363.98,-84.8 360.98,-88.8 339.98,-88.8 336.98,-84.8 264.02,-84.8 264.02,-48.8 363.98,-48.8 363.98,-84.8"/>
<text text-anchor="middle" x="314" y="-62.6" font-family="Times,serif" font-size="14.00">LoggerModule</text>
</g>
<!-- LoggerModule&#45;&gt;CommonModule -->
<g id="edge5" class="edge">
<title>LoggerModule&#45;&gt;CommonModule</title>
<path fill="none" stroke="black" d="M364,-66.8C372.51,-66.8 378.67,-66.8 378.67,-66.8 378.67,-66.8 378.67,-103.69 378.67,-103.69"/>
<polygon fill="black" stroke="black" points="375.17,-103.69 378.67,-113.69 382.17,-103.69 375.17,-103.69"/>
</g>
<!-- RequestModule -->
<g id="node6" class="node">
<title>RequestModule</title>
<polygon fill="#8dd3c7" stroke="black" points="246.16,-84.8 243.16,-88.8 222.16,-88.8 219.16,-84.8 141.84,-84.8 141.84,-48.8 246.16,-48.8 246.16,-84.8"/>
<text text-anchor="middle" x="194" y="-62.6" font-family="Times,serif" font-size="14.00">RequestModule</text>
</g>
<!-- RequestModule&#45;&gt;CommonModule -->
<g id="edge6" class="edge">
<title>RequestModule&#45;&gt;CommonModule</title>
<path fill="none" stroke="black" d="M194,-84.82C194,-102.17 194,-125.8 194,-125.8 194,-125.8 365.13,-125.8 365.13,-125.8"/>
<polygon fill="black" stroke="black" points="365.13,-129.3 375.13,-125.8 365.13,-122.3 365.13,-129.3"/>
</g>
<!-- SettingModule -->
<g id="node7" class="node">
<title>SettingModule</title>
<polygon fill="#8dd3c7" stroke="black" points="123.72,-84.8 120.72,-88.8 99.72,-88.8 96.72,-84.8 24.28,-84.8 24.28,-48.8 123.72,-48.8 123.72,-84.8"/>
<text text-anchor="middle" x="74" y="-62.6" font-family="Times,serif" font-size="14.00">SettingModule</text>
</g>
<!-- SettingModule&#45;&gt;CommonModule -->
<g id="edge7" class="edge">
<title>SettingModule&#45;&gt;CommonModule</title>
<path fill="none" stroke="black" d="M74,-85.08C74,-106.12 74,-137.8 74,-137.8 74,-137.8 365.22,-137.8 365.22,-137.8"/>
<polygon fill="black" stroke="black" points="365.22,-141.3 375.22,-137.8 365.22,-134.3 365.22,-141.3"/>
</g>
</g>
</svg>
