<?xml version="1.0" encoding="UTF-8" standalone="no"?>
<!DOCTYPE svg PUBLIC "-//W3C//DTD SVG 1.1//EN"
 "http://www.w3.org/Graphics/SVG/1.1/DTD/svg11.dtd">
<!-- Generated by graphviz version 5.0.0 (20220707.1540)
 -->
<!-- Title: dependencies Pages: 1 -->
<svg width="633pt" height="174pt"
 viewBox="0.00 0.00 633.00 173.80" xmlns="http://www.w3.org/2000/svg" xmlns:xlink="http://www.w3.org/1999/xlink">
<g id="graph0" class="graph" transform="scale(1 1) rotate(0) translate(4 169.8)">
<title>dependencies</title>
<polygon fill="white" stroke="transparent" points="-4,4 -4,-169.8 629,-169.8 629,4 -4,4"/>
<text text-anchor="middle" x="312.5" y="-8.2" font-family="sans-serif" font-size="14.00">dependencies</text>
<g id="clust1" class="cluster">
<title>cluster_CommonModule</title>
<polygon fill="none" stroke="black" stroke-dasharray="1,5" points="8,-32.8 8,-157.8 617,-157.8 617,-32.8 8,-32.8"/>
</g>
<g id="clust3" class="cluster">
<title>cluster_CommonModule_imports</title>
<polygon fill="none" stroke="black" points="16,-40.8 16,-92.8 609,-92.8 609,-40.8 16,-40.8"/>
</g>
<!-- AuthJwtModule -->
<g id="node1" class="node">
<title>AuthJwtModule</title>
<polygon fill="#8dd3c7" stroke="black" points="600.5,-84.8 597.5,-88.8 576.5,-88.8 573.5,-84.8 493.5,-84.8 493.5,-48.8 600.5,-48.8 600.5,-84.8"/>
<text text-anchor="middle" x="547" y="-62.6" font-family="Times,serif" font-size="14.00">AuthJwtModule</text>
</g>
<!-- CommonModule -->
<g id="node6" class="node">
<title>CommonModule</title>
<polygon fill="#8dd3c7" stroke="black" points="372.67,-149.8 369.67,-153.8 348.67,-153.8 345.67,-149.8 261.33,-149.8 261.33,-113.8 372.67,-113.8 372.67,-149.8"/>
<text text-anchor="middle" x="317" y="-127.6" font-family="Times,serif" font-size="14.00">CommonModule</text>
</g>
<!-- AuthJwtModule&#45;&gt;CommonModule -->
<g id="edge1" class="edge">
<title>AuthJwtModule&#45;&gt;CommonModule</title>
<path fill="none" stroke="black" d="M547,-85.08C547,-106.12 547,-137.8 547,-137.8 547,-137.8 382.68,-137.8 382.68,-137.8"/>
<polygon fill="black" stroke="black" points="382.68,-134.3 372.68,-137.8 382.68,-141.3 382.68,-134.3"/>
</g>
<!-- AwsModule -->
<g id="node2" class="node">
<title>AwsModule</title>
<polygon fill="#8dd3c7" stroke="black" points="475.72,-84.8 472.72,-88.8 451.72,-88.8 448.72,-84.8 390.28,-84.8 390.28,-48.8 475.72,-48.8 475.72,-84.8"/>
<text text-anchor="middle" x="433" y="-62.6" font-family="Times,serif" font-size="14.00">AwsModule</text>
</g>
<!-- AwsModule&#45;&gt;CommonModule -->
<g id="edge2" class="edge">
<title>AwsModule&#45;&gt;CommonModule</title>
<path fill="none" stroke="black" d="M433,-84.82C433,-102.17 433,-125.8 433,-125.8 433,-125.8 382.96,-125.8 382.96,-125.8"/>
<polygon fill="black" stroke="black" points="382.96,-122.3 372.96,-125.8 382.96,-129.3 382.96,-122.3"/>
</g>
<!-- DatabaseModule -->
<g id="node3" class="node">
<title>DatabaseModule</title>
<polygon fill="#8dd3c7" stroke="black" points="372.36,-84.8 369.36,-88.8 348.36,-88.8 345.36,-84.8 261.64,-84.8 261.64,-48.8 372.36,-48.8 372.36,-84.8"/>
<text text-anchor="middle" x="317" y="-62.6" font-family="Times,serif" font-size="14.00">DatabaseModule</text>
</g>
<!-- DatabaseModule&#45;&gt;CommonModule -->
<g id="edge3" class="edge">
<title>DatabaseModule&#45;&gt;CommonModule</title>
<path fill="none" stroke="black" d="M317,-84.91C317,-84.91 317,-103.79 317,-103.79"/>
<polygon fill="black" stroke="black" points="313.5,-103.79 317,-113.79 320.5,-103.79 313.5,-103.79"/>
</g>
<!-- HelperModule -->
<g id="node4" class="node">
<title>HelperModule</title>
<polygon fill="#8dd3c7" stroke="black" points="243.64,-84.8 240.64,-88.8 219.64,-88.8 216.64,-84.8 146.36,-84.8 146.36,-48.8 243.64,-48.8 243.64,-84.8"/>
<text text-anchor="middle" x="195" y="-62.6" font-family="Times,serif" font-size="14.00">HelperModule</text>
</g>
<!-- HelperModule&#45;&gt;CommonModule -->
<g id="edge4" class="edge">
<title>HelperModule&#45;&gt;CommonModule</title>
<path fill="none" stroke="black" d="M195,-84.82C195,-102.17 195,-125.8 195,-125.8 195,-125.8 251,-125.8 251,-125.8"/>
<polygon fill="black" stroke="black" points="251,-129.3 261,-125.8 251,-122.3 251,-129.3"/>
</g>
<!-- RequestModule -->
<g id="node5" class="node">
<title>RequestModule</title>
<polygon fill="#8dd3c7" stroke="black" points="128.16,-84.8 125.16,-88.8 104.16,-88.8 101.16,-84.8 23.84,-84.8 23.84,-48.8 128.16,-48.8 128.16,-84.8"/>
<text text-anchor="middle" x="76" y="-62.6" font-family="Times,serif" font-size="14.00">RequestModule</text>
</g>
<!-- RequestModule&#45;&gt;CommonModule -->
<g id="edge5" class="edge">
<title>RequestModule&#45;&gt;CommonModule</title>
<path fill="none" stroke="black" d="M76,-85.08C76,-106.12 76,-137.8 76,-137.8 76,-137.8 251.1,-137.8 251.1,-137.8"/>
<polygon fill="black" stroke="black" points="251.1,-141.3 261.1,-137.8 251.1,-134.3 251.1,-141.3"/>
</g>
</g>
</svg>
