<?xml version="1.0" encoding="UTF-8" standalone="no"?>
<!DOCTYPE svg PUBLIC "-//W3C//DTD SVG 1.1//EN"
 "http://www.w3.org/Graphics/SVG/1.1/DTD/svg11.dtd">
<!-- Generated by graphviz version 5.0.0 (20220707.1540)
 -->
<!-- Title: dependencies Pages: 1 -->
<svg width="662pt" height="247pt"
 viewBox="0.00 0.00 662.00 246.80" xmlns="http://www.w3.org/2000/svg" xmlns:xlink="http://www.w3.org/1999/xlink">
<g id="graph0" class="graph" transform="scale(1 1) rotate(0) translate(4 242.8)">
<title>dependencies</title>
<polygon fill="white" stroke="transparent" points="-4,4 -4,-242.8 658,-242.8 658,4 -4,4"/>
<text text-anchor="middle" x="327" y="-8.2" font-family="sans-serif" font-size="14.00">dependencies</text>
<g id="clust1" class="cluster">
<title>cluster_HelperModule</title>
<polygon fill="none" stroke="black" stroke-dasharray="1,5" points="8,-32.8 8,-230.8 646,-230.8 646,-32.8 8,-32.8"/>
</g>
<g id="clust6" class="cluster">
<title>cluster_HelperModule_providers</title>
<polygon fill="none" stroke="black" points="16,-40.8 16,-92.8 638,-92.8 638,-40.8 16,-40.8"/>
</g>
<g id="clust4" class="cluster">
<title>cluster_HelperModule_exports</title>
<polygon fill="none" stroke="black" points="84,-170.8 84,-222.8 560,-222.8 560,-170.8 84,-170.8"/>
</g>
<!-- HelperEncryptionService  -->
<g id="node1" class="node">
<title>HelperEncryptionService </title>
<polygon fill="#fb8072" stroke="black" points="551.78,-214.8 390.22,-214.8 390.22,-178.8 551.78,-178.8 551.78,-214.8"/>
<text text-anchor="middle" x="471" y="-192.6" font-family="Times,serif" font-size="14.00">HelperEncryptionService </text>
</g>
<!-- HelperHashService  -->
<g id="node2" class="node">
<title>HelperHashService </title>
<polygon fill="#fb8072" stroke="black" points="372.34,-214.8 243.66,-214.8 243.66,-178.8 372.34,-178.8 372.34,-214.8"/>
<text text-anchor="middle" x="308" y="-192.6" font-family="Times,serif" font-size="14.00">HelperHashService </text>
</g>
<!-- HelperStringService  -->
<g id="node3" class="node">
<title>HelperStringService </title>
<polygon fill="#fb8072" stroke="black" points="225.8,-214.8 92.2,-214.8 92.2,-178.8 225.8,-178.8 225.8,-214.8"/>
<text text-anchor="middle" x="159" y="-192.6" font-family="Times,serif" font-size="14.00">HelperStringService </text>
</g>
<!-- HelperModule -->
<g id="node4" class="node">
<title>HelperModule</title>
<polygon fill="#8dd3c7" stroke="black" points="356.64,-149.8 353.64,-153.8 332.64,-153.8 329.64,-149.8 259.36,-149.8 259.36,-113.8 356.64,-113.8 356.64,-149.8"/>
<text text-anchor="middle" x="308" y="-127.6" font-family="Times,serif" font-size="14.00">HelperModule</text>
</g>
<!-- HelperModule&#45;&gt;HelperEncryptionService  -->
<g id="edge1" class="edge">
<title>HelperModule&#45;&gt;HelperEncryptionService </title>
<path fill="none" stroke="black" stroke-dasharray="5,2" d="M356.88,-137.8C380.14,-137.8 402.97,-137.8 402.97,-137.8 402.97,-137.8 402.97,-168.78 402.97,-168.78"/>
<polygon fill="black" stroke="black" points="399.47,-168.78 402.97,-178.78 406.47,-168.78 399.47,-168.78"/>
</g>
<!-- HelperModule&#45;&gt;HelperHashService  -->
<g id="edge2" class="edge">
<title>HelperModule&#45;&gt;HelperHashService </title>
<path fill="none" stroke="black" stroke-dasharray="5,2" d="M308,-149.91C308,-149.91 308,-168.79 308,-168.79"/>
<polygon fill="black" stroke="black" points="304.5,-168.79 308,-178.79 311.5,-168.79 304.5,-168.79"/>
</g>
<!-- HelperModule&#45;&gt;HelperStringService  -->
<g id="edge3" class="edge">
<title>HelperModule&#45;&gt;HelperStringService </title>
<path fill="none" stroke="black" stroke-dasharray="5,2" d="M259.33,-137.8C235.92,-137.8 212.88,-137.8 212.88,-137.8 212.88,-137.8 212.88,-168.78 212.88,-168.78"/>
<polygon fill="black" stroke="black" points="209.38,-168.78 212.88,-178.78 216.38,-168.78 209.38,-168.78"/>
</g>
<!-- HelperEncryptionService -->
<g id="node5" class="node">
<title>HelperEncryptionService</title>
<ellipse fill="#fdb462" stroke="black" cx="521" cy="-66.8" rx="109.35" ry="18"/>
<text text-anchor="middle" x="521" y="-62.6" font-family="Times,serif" font-size="14.00">HelperEncryptionService</text>
</g>
<!-- HelperEncryptionService&#45;&gt;HelperModule -->
<g id="edge4" class="edge">
<title>HelperEncryptionService&#45;&gt;HelperModule</title>
<path fill="none" stroke="black" d="M481.86,-83.87C481.86,-101.29 481.86,-125.8 481.86,-125.8 481.86,-125.8 366.89,-125.8 366.89,-125.8"/>
<polygon fill="black" stroke="black" points="366.89,-122.3 356.89,-125.8 366.89,-129.3 366.89,-122.3"/>
</g>
<!-- HelperHashService -->
<g id="node6" class="node">
<title>HelperHashService</title>
<ellipse fill="#fdb462" stroke="black" cx="308" cy="-66.8" rx="86.23" ry="18"/>
<text text-anchor="middle" x="308" y="-62.6" font-family="Times,serif" font-size="14.00">HelperHashService</text>
</g>
<!-- HelperHashService&#45;&gt;HelperModule -->
<g id="edge5" class="edge">
<title>HelperHashService&#45;&gt;HelperModule</title>
<path fill="none" stroke="black" d="M308,-84.91C308,-84.91 308,-103.79 308,-103.79"/>
<polygon fill="black" stroke="black" points="304.5,-103.79 308,-113.79 311.5,-103.79 304.5,-103.79"/>
</g>
<!-- HelperStringService -->
<g id="node7" class="node">
<title>HelperStringService</title>
<ellipse fill="#fdb462" stroke="black" cx="114" cy="-66.8" rx="89.75" ry="18"/>
<text text-anchor="middle" x="114" y="-62.6" font-family="Times,serif" font-size="14.00">HelperStringService</text>
</g>
<!-- HelperStringService&#45;&gt;HelperModule -->
<g id="edge6" class="edge">
<title>HelperStringService&#45;&gt;HelperModule</title>
<path fill="none" stroke="black" d="M147.99,-83.55C147.99,-100.99 147.99,-125.8 147.99,-125.8 147.99,-125.8 249.12,-125.8 249.12,-125.8"/>
<polygon fill="black" stroke="black" points="249.12,-129.3 259.12,-125.8 249.12,-122.3 249.12,-129.3"/>
</g>
</g>
</svg>
