<?xml version="1.0" encoding="UTF-8" standalone="no"?>
<!DOCTYPE svg PUBLIC "-//W3C//DTD SVG 1.1//EN"
 "http://www.w3.org/Graphics/SVG/1.1/DTD/svg11.dtd">
<!-- Generated by graphviz version 5.0.0 (20220707.1540)
 -->
<!-- Title: dependencies Pages: 1 -->
<svg width="204pt" height="174pt"
 viewBox="0.00 0.00 204.00 173.80" xmlns="http://www.w3.org/2000/svg" xmlns:xlink="http://www.w3.org/1999/xlink">
<g id="graph0" class="graph" transform="scale(1 1) rotate(0) translate(4 169.8)">
<title>dependencies</title>
<polygon fill="white" stroke="transparent" points="-4,4 -4,-169.8 200,-169.8 200,4 -4,4"/>
<text text-anchor="middle" x="98" y="-8.2" font-family="sans-serif" font-size="14.00">dependencies</text>
<g id="clust1" class="cluster">
<title>cluster_RoleModule</title>
<polygon fill="none" stroke="black" stroke-dasharray="1,5" points="8,-32.8 8,-157.8 188,-157.8 188,-32.8 8,-32.8"/>
</g>
<g id="clust3" class="cluster">
<title>cluster_RoleModule_imports</title>
<polygon fill="none" stroke="black" points="16,-40.8 16,-92.8 180,-92.8 180,-40.8 16,-40.8"/>
</g>
<!-- RoleRepositoryModule -->
<g id="node1" class="node">
<title>RoleRepositoryModule</title>
<polygon fill="#8dd3c7" stroke="black" points="171.94,-84.8 168.94,-88.8 147.94,-88.8 144.94,-84.8 24.06,-84.8 24.06,-48.8 171.94,-48.8 171.94,-84.8"/>
<text text-anchor="middle" x="98" y="-62.6" font-family="Times,serif" font-size="14.00">RoleRepositoryModule</text>
</g>
<!-- RoleModule -->
<g id="node2" class="node">
<title>RoleModule</title>
<polygon fill="#8dd3c7" stroke="black" points="140.99,-149.8 137.99,-153.8 116.99,-153.8 113.99,-149.8 55.01,-149.8 55.01,-113.8 140.99,-113.8 140.99,-149.8"/>
<text text-anchor="middle" x="98" y="-127.6" font-family="Times,serif" font-size="14.00">RoleModule</text>
</g>
<!-- RoleRepositoryModule&#45;&gt;RoleModule -->
<g id="edge1" class="edge">
<title>RoleRepositoryModule&#45;&gt;RoleModule</title>
<path fill="none" stroke="black" d="M98,-84.91C98,-84.91 98,-103.79 98,-103.79"/>
<polygon fill="black" stroke="black" points="94.5,-103.79 98,-113.79 101.5,-103.79 94.5,-103.79"/>
</g>
</g>
</svg>
