<?xml version="1.0" encoding="UTF-8" standalone="no"?>
<!DOCTYPE svg PUBLIC "-//W3C//DTD SVG 1.1//EN"
 "http://www.w3.org/Graphics/SVG/1.1/DTD/svg11.dtd">
<!-- Generated by graphviz version 5.0.0 (20220707.1540)
 -->
<!-- Title: dependencies Pages: 1 -->
<svg width="371pt" height="174pt"
 viewBox="0.00 0.00 371.00 173.80" xmlns="http://www.w3.org/2000/svg" xmlns:xlink="http://www.w3.org/1999/xlink">
<g id="graph0" class="graph" transform="scale(1 1) rotate(0) translate(4 169.8)">
<title>dependencies</title>
<polygon fill="white" stroke="transparent" points="-4,4 -4,-169.8 367,-169.8 367,4 -4,4"/>
<text text-anchor="middle" x="181.5" y="-8.2" font-family="sans-serif" font-size="14.00">dependencies</text>
<g id="clust1" class="cluster">
<title>cluster_RoutesPublicModule</title>
<polygon fill="none" stroke="black" stroke-dasharray="1,5" points="8,-32.8 8,-157.8 355,-157.8 355,-32.8 8,-32.8"/>
</g>
<g id="clust3" class="cluster">
<title>cluster_RoutesPublicModule_imports</title>
<polygon fill="none" stroke="black" points="16,-40.8 16,-92.8 347,-92.8 347,-40.8 16,-40.8"/>
</g>
<!-- AuthJwtModule -->
<g id="node1" class="node">
<title>AuthJwtModule</title>
<polygon fill="#8dd3c7" stroke="black" points="338.5,-84.8 335.5,-88.8 314.5,-88.8 311.5,-84.8 231.5,-84.8 231.5,-48.8 338.5,-48.8 338.5,-84.8"/>
<text text-anchor="middle" x="285" y="-62.6" font-family="Times,serif" font-size="14.00">AuthJwtModule</text>
</g>
<!-- RoutesPublicModule -->
<g id="node4" class="node">
<title>RoutesPublicModule</title>
<polygon fill="#8dd3c7" stroke="black" points="238.22,-149.8 235.22,-153.8 214.22,-153.8 211.22,-149.8 103.78,-149.8 103.78,-113.8 238.22,-113.8 238.22,-149.8"/>
<text text-anchor="middle" x="171" y="-127.6" font-family="Times,serif" font-size="14.00">RoutesPublicModule</text>
</g>
<!-- AuthJwtModule&#45;&gt;RoutesPublicModule -->
<g id="edge1" class="edge">
<title>AuthJwtModule&#45;&gt;RoutesPublicModule</title>
<path fill="none" stroke="black" d="M231.4,-66.8C226.17,-66.8 222.75,-66.8 222.75,-66.8 222.75,-66.8 222.75,-103.69 222.75,-103.69"/>
<polygon fill="black" stroke="black" points="219.25,-103.69 222.75,-113.69 226.25,-103.69 219.25,-103.69"/>
</g>
<!-- RoleModule -->
<g id="node2" class="node">
<title>RoleModule</title>
<polygon fill="#8dd3c7" stroke="black" points="213.99,-84.8 210.99,-88.8 189.99,-88.8 186.99,-84.8 128.01,-84.8 128.01,-48.8 213.99,-48.8 213.99,-84.8"/>
<text text-anchor="middle" x="171" y="-62.6" font-family="Times,serif" font-size="14.00">RoleModule</text>
</g>
<!-- RoleModule&#45;&gt;RoutesPublicModule -->
<g id="edge2" class="edge">
<title>RoleModule&#45;&gt;RoutesPublicModule</title>
<path fill="none" stroke="black" d="M171,-84.91C171,-84.91 171,-103.79 171,-103.79"/>
<polygon fill="black" stroke="black" points="167.5,-103.79 171,-113.79 174.5,-103.79 167.5,-103.79"/>
</g>
<!-- UserModule -->
<g id="node3" class="node">
<title>UserModule</title>
<polygon fill="#8dd3c7" stroke="black" points="109.99,-84.8 106.99,-88.8 85.99,-88.8 82.99,-84.8 24.01,-84.8 24.01,-48.8 109.99,-48.8 109.99,-84.8"/>
<text text-anchor="middle" x="67" y="-62.6" font-family="Times,serif" font-size="14.00">UserModule</text>
</g>
<!-- UserModule&#45;&gt;RoutesPublicModule -->
<g id="edge3" class="edge">
<title>UserModule&#45;&gt;RoutesPublicModule</title>
<path fill="none" stroke="black" d="M110.41,-66.8C115.54,-66.8 119,-66.8 119,-66.8 119,-66.8 119,-103.69 119,-103.69"/>
<polygon fill="black" stroke="black" points="115.5,-103.69 119,-113.69 122.5,-103.69 115.5,-103.69"/>
</g>
</g>
</svg>
